<svg width="21.000000" height="21.000000" viewBox="0 0 21 21" fill="none" xmlns="http://www.w3.org/2000/svg" xmlns:xlink="http://www.w3.org/1999/xlink">
	<desc>
			Created with Pixso.
	</desc>
	<defs/>
	<path id="chart-simple" d="M9.75 0C8.48 0 7.5 1.03 7.5 2.25L7.5 18.75C7.5 20.01 8.48 21 9.75 21L11.25 21C12.46 21 13.5 20.01 13.5 18.75L13.5 2.25C13.5 1.03 12.46 0 11.25 0L9.75 0ZM21 5.25C21 4.03 19.96 3 18.75 3L17.25 3C15.98 3 15 4.03 15 5.25L15 18.75C15 20.01 15.98 21 17.25 21L18.75 21C19.96 21 21 20.01 21 18.75L21 5.25ZM2.25 9C0.98 9 0 10.03 0 11.25L0 18.75C0 20.01 0.98 21 2.25 21L3.75 21C4.96 21 6 20.01 6 18.75L6 11.25C6 10.03 4.96 9 3.75 9L2.25 9Z" fill="#FFFFFF" fill-opacity="1.000000" fill-rule="evenodd"/>
	<path id="chart-simple" d="M7.5 2.25C7.5 1.03 8.48 0 9.75 0L11.25 0C12.46 0 13.5 1.03 13.5 2.25L13.5 18.75C13.5 20.01 12.46 21 11.25 21L9.75 21C8.48 21 7.5 20.01 7.5 18.75L7.5 2.25ZM0 11.25C0 10.03 0.98 9 2.25 9L3.75 9C4.96 9 6 10.03 6 11.25L6 18.75C6 20.01 4.96 21 3.75 21L2.25 21C0.98 21 0 20.01 0 18.75L0 11.25ZM18.75 3C19.96 3 21 4.03 21 5.25L21 18.75C21 20.01 19.96 21 18.75 21L17.25 21C15.98 21 15 20.01 15 18.75L15 5.25C15 4.03 15.98 3 17.25 3L18.75 3Z" stroke="#000000" stroke-opacity="1.000000" stroke-width="1.500000"/>
</svg>
