<svg width="25.699402" height="25.699219" viewBox="0 0 25.6994 25.6992" fill="none" xmlns="http://www.w3.org/2000/svg" xmlns:xlink="http://www.w3.org/1999/xlink">
	<desc>
			Created with Pixso.
	</desc>
	<defs/>
	<path id="Vector" d="M12.84 25.69C16.25 25.69 19.52 24.34 21.93 21.93C24.34 19.52 25.69 16.25 25.69 12.84C25.69 9.44 24.34 6.17 21.93 3.76C19.52 1.35 16.25 0 12.84 0C9.44 0 6.17 1.35 3.76 3.76C1.35 6.17 0 9.44 0 12.84C0 16.25 1.35 19.52 3.76 21.93C6.17 24.34 9.44 25.69 12.84 25.69ZM18.8 10.77C19.09 10.46 19.25 10.06 19.25 9.64C19.25 9.22 19.08 8.81 18.78 8.52C18.48 8.22 18.08 8.05 17.66 8.05C17.24 8.04 16.83 8.2 16.53 8.5L11.24 13.79L9.16 11.71C8.86 11.42 8.45 11.25 8.03 11.26C7.61 11.26 7.21 11.43 6.91 11.73C6.61 12.03 6.44 12.43 6.44 12.85C6.44 13.27 6.6 13.68 6.89 13.98L10.1 17.19C10.4 17.49 10.81 17.66 11.24 17.66C11.66 17.66 12.07 17.49 12.37 17.19L18.8 10.77Z" fill="#01AB31" fill-opacity="1.000000" fill-rule="evenodd"/>
</svg>
