<svg width="500.000000" height="500.000000" viewBox="0 0 500 500" fill="none" xmlns="http://www.w3.org/2000/svg" xmlns:xlink="http://www.w3.org/1999/xlink">
	<desc>
			Created with Pixso.
	</desc>
	<defs>
		<clipPath id="clip1_414">
			<rect id="7706852-ai 1" rx="-0.500000" width="499.000000" height="499.000000" transform="translate(0.500000 0.500000)" fill="white" fill-opacity="0"/>
		</clipPath>
	</defs>
	<rect id="7706852-ai 1" rx="-0.500000" width="499.000000" height="499.000000" transform="translate(0.500000 0.500000)" fill="#FFFFFF" fill-opacity="0"/>
	<g clip-path="url(#clip1_414)">
		<path id="&lt;Path&gt;" d="M485.65 265.1C485.75 264.04 485.8 262.95 485.95 261.9C487.45 250.4 494.45 164.05 385.95 55.39C269.29 -61.36 141.85 69.79 119.85 104.05C97.85 138.35 91.4 191 74.44 156.35C63.95 134.89 91.3 108.1 52.5 119.3C27.65 126.5 -18.6 190.1 19.29 299.35C57.2 408.6 163.6 491.95 265.9 485.9C397.4 478.05 474.85 382.7 468.7 375.6C462.55 368.5 413.55 389.65 424.3 374.95C434.9 360.4 482.55 305.65 485.65 265.1Z" fill="#5DCCFC" fill-opacity="0" fill-rule="nonzero"/>
		<g opacity="0.800000">
			<path id="&lt;Path&gt;" d="M485.65 265.1C485.75 264.04 485.8 262.95 485.95 261.9C487.45 250.4 494.45 164.05 385.95 55.39C269.29 -61.36 141.85 69.79 119.85 104.05C97.85 138.35 91.4 191 74.44 156.35C63.95 134.89 91.3 108.1 52.5 119.3C27.65 126.5 -18.6 190.1 19.29 299.35C57.2 408.6 163.6 491.95 265.9 485.9C397.4 478.05 474.85 382.7 468.7 375.6C462.55 368.5 413.55 389.65 424.3 374.95C434.9 360.4 482.55 305.65 485.65 265.1Z" fill="#C0E1F8" fill-opacity="0.620000" fill-rule="nonzero"/>
		</g>
		<path id="&lt;Path&gt;" d="M21.35 487.5L481.65 487.5" stroke="#263238" stroke-opacity="1.000000" stroke-width="2.000000" stroke-linejoin="round" stroke-linecap="round"/>
		<path id="&lt;Path&gt;" d="M375.1 180.15C359.55 179.5 353.7 202.2 349.85 203.5C345.95 204.8 334.25 195.7 324.54 198.3C314.85 200.9 313.54 206.75 310.95 208.7C308.35 210.65 303.79 206.1 297.95 206.75C292.15 207.4 285.65 215.15 285.65 215.15L270.1 217.75L440.6 217.75C440.6 217.75 430.85 200.9 423.75 197C416.6 193.15 408.2 199.6 404.95 199.6C401.7 199.6 397.15 193.75 397.15 193.75C397.15 193.75 390.65 180.8 375.1 180.15Z" stroke="#263238" stroke-opacity="1.000000" stroke-width="2.000000" stroke-linejoin="round"/>
		<path id="&lt;Path&gt;" d="M228.15 32.74C217.15 32.24 213 48.29 210.25 49.24C207.5 50.14 199.25 43.74 192.4 45.54C185.5 47.39 184.6 51.49 182.75 52.89C180.95 54.24 177.7 51.04 173.6 51.49C169.45 51.99 164.9 57.49 164.9 57.49L153.89 59.29L274.45 59.29C274.45 59.29 267.54 47.39 262.5 44.64C257.45 41.89 251.5 46.49 249.2 46.49C246.95 46.49 243.7 42.34 243.7 42.34C243.7 42.34 239.15 33.19 228.15 32.74Z" stroke="#263238" stroke-opacity="1.000000" stroke-width="2.000000" stroke-linejoin="round"/>
		<path id="&lt;Path&gt;" d="M464.5 72.44C458.75 72.25 456.6 80.64 455.15 81.09C453.7 81.59 449.4 78.25 445.8 79.19C442.15 80.14 441.7 82.34 440.75 83.04C439.75 83.75 438.1 82.09 435.9 82.34C433.75 82.54 431.35 85.44 431.35 85.44L425.6 86.39L488.8 86.39C488.8 86.39 485.2 80.14 482.55 78.69C479.9 77.29 476.8 79.69 475.55 79.69C474.35 79.69 472.7 77.5 472.7 77.5C472.7 77.5 470.3 72.69 464.5 72.44Z" stroke="#263238" stroke-opacity="1.000000" stroke-width="2.000000" stroke-linejoin="round"/>
		<path id="&lt;Path&gt;" d="M59.75 125.05C54 124.8 51.8 133.2 50.35 133.7C48.95 134.2 44.6 130.8 41 131.8C37.4 132.75 36.9 134.89 35.95 135.6C35 136.35 33.3 134.64 31.15 134.89C29 135.14 26.6 138.05 26.6 138.05L20.8 139L84 139C84 139 80.4 132.75 77.75 131.3C75.1 129.85 72 132.25 70.8 132.25C69.6 132.25 67.9 130.1 67.9 130.1C67.9 130.1 65.5 125.3 59.75 125.05Z" stroke="#263238" stroke-opacity="1.000000" stroke-width="2.000000" stroke-linejoin="round"/>
		<path id="&lt;Path&gt;" d="M262.75 356.7C262.75 388.35 244 414.05 220.9 414.05C197.75 414.05 179 388.35 179 356.7C179 325 197.75 216.1 220.9 216.1C244 216.1 262.75 325 262.75 356.7Z" fill="#0A76EE" fill-opacity="1.000000" fill-rule="nonzero"/>
		<g opacity="0.500000">
			<path id="&lt;Path&gt;" d="M262.75 356.7C262.75 388.35 244 414.05 220.9 414.05C197.75 414.05 179 388.35 179 356.7C179 325 197.75 216.1 220.9 216.1C244 216.1 262.75 325 262.75 356.7Z" fill="#65BBF8" fill-opacity="1.000000" fill-rule="nonzero"/>
		</g>
		<path id="&lt;Path&gt;" d="M244.35 373.25L231.7 377.95L234.2 370.3L228.15 379.25L222.1 381.5L221.7 356.4L243.7 327.15L231.9 338.95L233.9 330.75L228.25 342.6L221.55 349.3L220.9 310.15L218.5 367.25L197.6 345.15L209.05 360.75L198.25 359.5L211.6 364.2L218.25 373.15L217.1 400.7L209.4 395.5L216.85 406.4L213.3 487.5L224 487.5L222.2 385.5L244.35 373.25Z" fill="#878787" fill-opacity="1.000000" fill-rule="nonzero"/>
		<path id="&lt;Path&gt;" d="M243.9 310.29C243.9 310.29 244.3 314.15 242.2 316.95C240.1 319.79 236.3 320.5 236.3 320.5C236.3 320.5 235.9 316.65 238 313.85C240.1 311 243.9 310.29 243.9 310.29Z" fill="#FFFFFF" fill-opacity="1.000000" fill-rule="nonzero"/>
		<path id="&lt;Path&gt;" d="M256.54 328C256.54 328 256.9 331.85 254.8 334.7C252.7 337.5 248.9 338.25 248.9 338.25C248.9 338.25 248.55 334.4 250.65 331.55C252.75 328.75 256.54 328 256.54 328Z" fill="#FFFFFF" fill-opacity="1.000000" fill-rule="nonzero"/>
		<path id="&lt;Path&gt;" d="M256.5 362.55C256.5 362.55 255.6 366.3 252.65 368.25C249.75 370.2 245.9 369.6 245.9 369.6C245.9 369.6 246.85 365.85 249.75 363.9C252.7 361.95 256.5 362.55 256.5 362.55Z" fill="#FFFFFF" fill-opacity="1.000000" fill-rule="nonzero"/>
		<path id="&lt;Path&gt;" d="M187.25 362.55C187.25 362.55 188.15 366.3 191.1 368.25C194 370.2 197.85 369.6 197.85 369.6C197.85 369.6 196.9 365.85 194 363.9C191.05 361.95 187.25 362.55 187.25 362.55Z" fill="#FFFFFF" fill-opacity="1.000000" fill-rule="nonzero"/>
		<path id="&lt;Path&gt;" d="M241.95 348.2C241.95 348.2 242.35 352.05 240.25 354.85C238.15 357.7 234.35 358.45 234.35 358.45C234.35 358.45 233.95 354.6 236.05 351.75C238.15 348.95 241.95 348.2 241.95 348.2Z" fill="#FFFFFF" fill-opacity="1.000000" fill-rule="nonzero"/>
		<path id="&lt;Path&gt;" d="M238.7 291C238.7 291 239.05 294.85 236.95 297.65C234.85 300.5 231.05 301.2 231.05 301.2C231.05 301.2 230.7 297.4 232.8 294.54C234.9 291.75 238.7 291 238.7 291Z" fill="#FFFFFF" fill-opacity="1.000000" fill-rule="nonzero"/>
		<path id="&lt;Path&gt;" d="M231.15 305.7C231.15 305.7 231.55 309.54 229.45 312.4C227.35 315.2 223.55 315.95 223.55 315.95C223.55 315.95 223.15 312.1 225.25 309.25C227.35 306.45 231.15 305.7 231.15 305.7Z" fill="#FFFFFF" fill-opacity="1.000000" fill-rule="nonzero"/>
		<path id="&lt;Path&gt;" d="M249 295C249 295 249.4 298.85 247.3 301.65C245.2 304.5 241.4 305.2 241.4 305.2C241.4 305.2 241 301.4 243.1 298.54C245.2 295.75 249 295 249 295Z" fill="#FFFFFF" fill-opacity="1.000000" fill-rule="nonzero"/>
		<path id="&lt;Path&gt;" d="M191 295C191 295 190.65 298.85 192.75 301.65C194.85 304.5 198.65 305.2 198.65 305.2C198.65 305.2 199 301.4 196.9 298.54C194.8 295.75 191 295 191 295Z" fill="#FFFFFF" fill-opacity="1.000000" fill-rule="nonzero"/>
		<path id="&lt;Path&gt;" d="M240.3 273C240.3 273 240.7 276.85 238.6 279.7C236.5 282.5 232.7 283.25 232.7 283.25C232.7 283.25 232.3 279.4 234.4 276.6C236.5 273.75 240.3 273 240.3 273Z" fill="#FFFFFF" fill-opacity="1.000000" fill-rule="nonzero"/>
		<path id="&lt;Path&gt;" d="M236.6 253.9C236.6 253.9 237.95 257.54 236.65 260.79C235.3 264.04 231.8 265.75 231.8 265.75C231.8 265.75 230.5 262.1 231.8 258.85C233.15 255.6 236.6 253.9 236.6 253.9Z" fill="#FFFFFF" fill-opacity="1.000000" fill-rule="nonzero"/>
		<path id="&lt;Path&gt;" d="M210.15 248.95C210.15 248.95 213.55 250.75 214.75 254.05C215.95 257.35 214.5 260.9 214.5 260.9C214.5 260.9 211.05 259.1 209.85 255.8C208.65 252.5 210.15 248.95 210.15 248.95Z" fill="#FFFFFF" fill-opacity="1.000000" fill-rule="nonzero"/>
		<path id="&lt;Path&gt;" d="M222.5 271.75C222.5 271.75 224.95 274.75 224.75 278.29C224.55 281.79 221.75 284.5 221.75 284.5C221.75 284.5 219.3 281.5 219.5 278C219.75 274.45 222.5 271.75 222.5 271.75Z" fill="#FFFFFF" fill-opacity="1.000000" fill-rule="nonzero"/>
		<path id="&lt;Path&gt;" d="M222 237.25C222 237.25 224.4 240.25 224.2 243.8C224 247.3 221.25 250 221.25 250C221.25 250 218.8 247 219 243.5C219.2 239.95 222 237.25 222 237.25Z" fill="#FFFFFF" fill-opacity="1.000000" fill-rule="nonzero"/>
		<path id="&lt;Path&gt;" d="M194.15 310.29C194.15 310.29 193.75 314.15 195.85 316.95C197.95 319.79 201.75 320.5 201.75 320.5C201.75 320.5 202.15 316.65 200.05 313.85C197.95 311 194.15 310.29 194.15 310.29Z" fill="#FFFFFF" fill-opacity="1.000000" fill-rule="nonzero"/>
		<path id="&lt;Path&gt;" d="M186.95 331.2C186.95 331.2 186.55 335.05 188.65 337.85C190.75 340.7 194.55 341.45 194.55 341.45C194.55 341.45 194.95 337.6 192.85 334.75C190.75 331.95 186.95 331.2 186.95 331.2Z" fill="#FFFFFF" fill-opacity="1.000000" fill-rule="nonzero"/>
		<path id="&lt;Path&gt;" d="M206.05 338.8C206.05 338.8 205.65 342.65 207.75 345.45C209.85 348.3 213.65 349 213.65 349C213.65 349 214.05 345.2 211.95 342.35C209.8 339.55 206.05 338.8 206.05 338.8Z" fill="#FFFFFF" fill-opacity="1.000000" fill-rule="nonzero"/>
		<path id="&lt;Path&gt;" d="M211.25 309.79C211.25 309.79 209.8 313.4 211 316.7C212.2 320 215.6 321.79 215.6 321.79C215.6 321.79 217.1 318.2 215.9 314.9C214.7 311.6 211.25 309.79 211.25 309.79Z" fill="#FFFFFF" fill-opacity="1.000000" fill-rule="nonzero"/>
		<path id="&lt;Path&gt;" d="M197.75 386.95C197.75 386.95 201.6 387 204.25 384.7C206.9 382.35 207.3 378.5 207.3 378.5C207.3 378.5 203.45 378.45 200.8 380.8C198.15 383.1 197.75 386.95 197.75 386.95Z" fill="#FFFFFF" fill-opacity="1.000000" fill-rule="nonzero"/>
		<path id="&lt;Path&gt;" d="M234.8 382.7C234.8 382.7 235.85 386.45 238.85 388.3C241.85 390.15 245.65 389.45 245.65 389.45C245.65 389.45 244.6 385.7 241.6 383.85C238.6 382 234.8 382.7 234.8 382.7Z" fill="#FFFFFF" fill-opacity="1.000000" fill-rule="nonzero"/>
		<path id="&lt;Path&gt;" d="M202.05 291C202.05 291 201.65 294.85 203.75 297.65C205.85 300.5 209.65 301.2 209.65 301.2C209.65 301.2 210.05 297.4 207.95 294.54C205.85 291.75 202.05 291 202.05 291Z" fill="#FFFFFF" fill-opacity="1.000000" fill-rule="nonzero"/>
		<path id="&lt;Path&gt;" d="M202 274C202 274 201.6 277.85 203.7 280.65C205.8 283.5 209.6 284.25 209.6 284.25C209.6 284.25 210 280.4 207.85 277.54C205.75 274.75 202 274 202 274Z" fill="#FFFFFF" fill-opacity="1.000000" fill-rule="nonzero"/>
		<path id="&lt;Path&gt;" d="M332.8 395.1C332.8 417.5 319.54 435.65 303.25 435.65C286.9 435.65 273.65 417.5 273.65 395.1C273.65 372.75 286.9 295.85 303.25 295.85C319.54 295.85 332.8 372.75 332.8 395.1Z" fill="#0A76EE" fill-opacity="1.000000" fill-rule="nonzero"/>
		<g opacity="0.500000">
			<path id="&lt;Path&gt;" d="M332.8 395.1C332.8 417.5 319.54 435.65 303.25 435.65C286.9 435.65 273.65 417.5 273.65 395.1C273.65 372.75 286.9 295.85 303.25 295.85C319.54 295.85 332.8 372.75 332.8 395.1Z" fill="#65BBF8" fill-opacity="1.000000" fill-rule="nonzero"/>
		</g>
		<path id="&lt;Path&gt;" d="M319.79 406.8L310.85 410.15L312.65 404.75L308.35 411.05L304.1 412.65L303.79 394.95L319.35 374.25L311 382.6L312.4 376.8L308.45 385.2L303.7 389.9L303.25 362.25L301.54 402.6L286.79 386.95L294.9 397.95L287.25 397.1L296.7 400.4L301.35 406.75L300.54 426.2L295.1 422.5L300.35 430.25L297.9 487.5L305.45 487.5L304.15 415.45L319.79 406.8Z" fill="#878787" fill-opacity="1.000000" fill-rule="nonzero"/>
		<path id="&lt;Path&gt;" d="M319.5 362.35C319.5 362.35 319.75 365.05 318.29 367.05C316.79 369.05 314.1 369.55 314.1 369.55C314.1 369.55 313.85 366.85 315.35 364.85C316.79 362.85 319.5 362.35 319.5 362.35Z" fill="#FFFFFF" fill-opacity="1.000000" fill-rule="nonzero"/>
		<path id="&lt;Path&gt;" d="M328.4 374.85C328.4 374.85 328.7 377.6 327.2 379.6C325.7 381.55 323.04 382.1 323.04 382.1C323.04 382.1 322.75 379.35 324.25 377.4C325.7 375.4 328.4 374.85 328.4 374.85Z" fill="#FFFFFF" fill-opacity="1.000000" fill-rule="nonzero"/>
		<path id="&lt;Path&gt;" d="M328.4 399.25C328.4 399.25 327.75 401.9 325.7 403.25C323.6 404.65 320.9 404.25 320.9 404.25C320.9 404.25 321.54 401.6 323.65 400.2C325.7 398.85 328.4 399.25 328.4 399.25Z" fill="#FFFFFF" fill-opacity="1.000000" fill-rule="nonzero"/>
		<path id="&lt;Path&gt;" d="M279.45 399.25C279.45 399.25 280.1 401.9 282.2 403.25C284.25 404.65 286.95 404.25 286.95 404.25C286.95 404.25 286.29 401.6 284.25 400.2C282.15 398.85 279.45 399.25 279.45 399.25Z" fill="#FFFFFF" fill-opacity="1.000000" fill-rule="nonzero"/>
		<path id="&lt;Path&gt;" d="M318.1 389.15C318.1 389.15 318.4 391.85 316.9 393.85C315.4 395.85 312.75 396.35 312.75 396.35C312.75 396.35 312.45 393.65 313.95 391.65C315.45 389.65 318.1 389.15 318.1 389.15Z" fill="#FFFFFF" fill-opacity="1.000000" fill-rule="nonzero"/>
		<path id="&lt;Path&gt;" d="M315.79 348.75C315.79 348.75 316.04 351.45 314.6 353.45C313.1 355.45 310.4 355.95 310.4 355.95C310.4 355.95 310.15 353.25 311.65 351.25C313.1 349.25 315.79 348.75 315.79 348.75Z" fill="#FFFFFF" fill-opacity="1.000000" fill-rule="nonzero"/>
		<path id="&lt;Path&gt;" d="M310.5 359.1C310.5 359.1 310.75 361.85 309.29 363.85C307.79 365.8 305.1 366.35 305.1 366.35C305.1 366.35 304.85 363.6 306.35 361.65C307.79 359.65 310.5 359.1 310.5 359.1Z" fill="#FFFFFF" fill-opacity="1.000000" fill-rule="nonzero"/>
		<path id="&lt;Path&gt;" d="M323.1 351.55C323.1 351.55 323.35 354.25 321.9 356.25C320.4 358.25 317.7 358.8 317.7 358.8C317.7 358.8 317.45 356.05 318.95 354.05C320.4 352.05 323.1 351.55 323.1 351.55Z" fill="#FFFFFF" fill-opacity="1.000000" fill-rule="nonzero"/>
		<path id="&lt;Path&gt;" d="M282.15 351.55C282.15 351.55 281.85 354.25 283.35 356.25C284.85 358.25 287.5 358.8 287.5 358.8C287.5 358.8 287.79 356.05 286.29 354.05C284.79 352.05 282.15 351.55 282.15 351.55Z" fill="#FFFFFF" fill-opacity="1.000000" fill-rule="nonzero"/>
		<path id="&lt;Path&gt;" d="M316.95 336.05C316.95 336.05 317.25 338.75 315.75 340.75C314.25 342.75 311.6 343.25 311.6 343.25C311.6 343.25 311.29 340.55 312.79 338.55C314.25 336.55 316.95 336.05 316.95 336.05Z" fill="#FFFFFF" fill-opacity="1.000000" fill-rule="nonzero"/>
		<path id="&lt;Path&gt;" d="M314.35 322.54C314.35 322.54 315.29 325.1 314.35 327.4C313.4 329.7 310.95 330.9 310.95 330.9C310.95 330.9 310 328.35 310.95 326C311.9 323.7 314.35 322.54 314.35 322.54Z" fill="#FFFFFF" fill-opacity="1.000000" fill-rule="nonzero"/>
		<path id="&lt;Path&gt;" d="M295.65 319C295.65 319 298.04 320.29 298.9 322.65C299.75 324.95 298.7 327.5 298.7 327.5C298.7 327.5 296.29 326.2 295.45 323.9C294.6 321.54 295.65 319 295.65 319Z" fill="#FFFFFF" fill-opacity="1.000000" fill-rule="nonzero"/>
		<path id="&lt;Path&gt;" d="M304.35 335.15C304.35 335.15 306.1 337.25 305.95 339.75C305.79 342.25 303.85 344.15 303.85 344.15C303.85 344.15 302.15 342 302.25 339.55C302.4 337.05 304.35 335.15 304.35 335.15Z" fill="#FFFFFF" fill-opacity="1.000000" fill-rule="nonzero"/>
		<path id="&lt;Path&gt;" d="M303.9 311.15C303.9 311.15 305.65 313.25 305.5 315.75C305.35 318.25 303.4 320.15 303.4 320.15C303.4 320.15 301.65 318 301.79 315.54C301.95 313.04 303.9 311.15 303.9 311.15Z" fill="#FFFFFF" fill-opacity="1.000000" fill-rule="nonzero"/>
		<path id="&lt;Path&gt;" d="M284.35 362.35C284.35 362.35 284.04 365.05 285.54 367.05C287.04 369.05 289.7 369.55 289.7 369.55C289.7 369.55 290 366.85 288.5 364.85C287 362.85 284.35 362.35 284.35 362.35Z" fill="#FFFFFF" fill-opacity="1.000000" fill-rule="nonzero"/>
		<path id="&lt;Path&gt;" d="M279.25 377.1C279.25 377.1 279 379.85 280.45 381.85C281.95 383.85 284.65 384.35 284.65 384.35C284.65 384.35 284.9 381.65 283.45 379.65C281.95 377.65 279.25 377.1 279.25 377.1Z" fill="#FFFFFF" fill-opacity="1.000000" fill-rule="nonzero"/>
		<path id="&lt;Path&gt;" d="M292.75 382.5C292.75 382.5 292.45 385.2 293.95 387.2C295.45 389.2 298.1 389.7 298.1 389.7C298.1 389.7 298.4 387 296.9 385C295.4 383 292.75 382.5 292.75 382.5Z" fill="#FFFFFF" fill-opacity="1.000000" fill-rule="nonzero"/>
		<path id="&lt;Path&gt;" d="M296.45 362C296.45 362 295.4 364.55 296.25 366.9C297.1 369.2 299.5 370.45 299.5 370.45C299.5 370.45 300.54 367.95 299.7 365.6C298.85 363.3 296.45 362 296.45 362Z" fill="#FFFFFF" fill-opacity="1.000000" fill-rule="nonzero"/>
		<path id="&lt;Path&gt;" d="M286.9 416.5C286.9 416.5 289.6 416.55 291.5 414.9C293.35 413.25 293.65 410.55 293.65 410.55C293.65 410.55 290.9 410.5 289.04 412.15C287.2 413.75 286.9 416.5 286.9 416.5Z" fill="#FFFFFF" fill-opacity="1.000000" fill-rule="nonzero"/>
		<path id="&lt;Path&gt;" d="M313.04 413.5C313.04 413.5 313.79 416.15 315.95 417.45C318.04 418.75 320.7 418.25 320.7 418.25C320.7 418.25 320 415.6 317.85 414.3C315.75 413 313.04 413.5 313.04 413.5Z" fill="#FFFFFF" fill-opacity="1.000000" fill-rule="nonzero"/>
		<path id="&lt;Path&gt;" d="M289.95 348.75C289.95 348.75 289.65 351.45 291.15 353.45C292.6 355.45 295.29 355.95 295.29 355.95C295.29 355.95 295.6 353.25 294.1 351.25C292.6 349.25 289.95 348.75 289.95 348.75Z" fill="#FFFFFF" fill-opacity="1.000000" fill-rule="nonzero"/>
		<path id="&lt;Path&gt;" d="M289.9 336.75C289.9 336.75 289.6 339.45 291.1 341.45C292.6 343.45 295.25 343.95 295.25 343.95C295.25 343.95 295.54 341.25 294.04 339.25C292.54 337.25 289.9 336.75 289.9 336.75Z" fill="#FFFFFF" fill-opacity="1.000000" fill-rule="nonzero"/>
		<path id="&lt;Path&gt;" d="M98.65 395.1C98.65 417.5 85.45 435.65 69.1 435.65C52.75 435.65 39.55 417.5 39.55 395.1C39.55 372.75 52.75 295.85 69.1 295.85C85.45 295.85 98.65 372.75 98.65 395.1Z" fill="#0A76EE" fill-opacity="1.000000" fill-rule="nonzero"/>
		<g opacity="0.500000">
			<path id="&lt;Path&gt;" d="M98.65 395.1C98.65 417.5 85.45 435.65 69.1 435.65C52.75 435.65 39.55 417.5 39.55 395.1C39.55 372.75 52.75 295.85 69.1 295.85C85.45 295.85 98.65 372.75 98.65 395.1Z" fill="#65BBF8" fill-opacity="1.000000" fill-rule="nonzero"/>
		</g>
		<path id="&lt;Path&gt;" d="M85.7 406.8L76.69 410.15L78.5 404.75L74.25 411.05L69.94 412.65L69.65 394.95L85.2 374.25L76.9 382.6L78.3 376.8L74.3 385.2L69.6 389.9L69.1 362.25L67.4 402.6L52.65 386.95L60.75 397.95L53.15 397.1L62.55 400.4L67.25 406.75L66.4 426.2L61 422.5L66.25 430.25L63.75 487.5L71.3 487.5L70 415.45L85.7 406.8Z" fill="#878787" fill-opacity="1.000000" fill-rule="nonzero"/>
		<path id="&lt;Path&gt;" d="M85.34 362.35C85.34 362.35 85.65 365.05 84.15 367.05C82.65 369.05 80 369.55 80 369.55C80 369.55 79.69 366.85 81.19 364.85C82.7 362.85 85.34 362.35 85.34 362.35Z" fill="#FFFFFF" fill-opacity="1.000000" fill-rule="nonzero"/>
		<path id="&lt;Path&gt;" d="M94.25 374.85C94.25 374.85 94.55 377.6 93.05 379.6C91.6 381.55 88.9 382.1 88.9 382.1C88.9 382.1 88.6 379.35 90.1 377.4C91.6 375.4 94.25 374.85 94.25 374.85Z" fill="#FFFFFF" fill-opacity="1.000000" fill-rule="nonzero"/>
		<path id="&lt;Path&gt;" d="M94.25 399.25C94.25 399.25 93.6 401.9 91.55 403.25C89.5 404.65 86.8 404.25 86.8 404.25C86.8 404.25 87.45 401.6 89.5 400.2C91.55 398.85 94.25 399.25 94.25 399.25Z" fill="#FFFFFF" fill-opacity="1.000000" fill-rule="nonzero"/>
		<path id="&lt;Path&gt;" d="M45.35 399.25C45.35 399.25 46 401.9 48.05 403.25C50.15 404.65 52.85 404.25 52.85 404.25C52.85 404.25 52.15 401.6 50.1 400.2C48.05 398.85 45.35 399.25 45.35 399.25Z" fill="#FFFFFF" fill-opacity="1.000000" fill-rule="nonzero"/>
		<path id="&lt;Path&gt;" d="M84 389.15C84 389.15 84.25 391.85 82.75 393.85C81.3 395.85 78.6 396.35 78.6 396.35C78.6 396.35 78.35 393.65 79.8 391.65C81.3 389.65 84 389.15 84 389.15Z" fill="#FFFFFF" fill-opacity="1.000000" fill-rule="nonzero"/>
		<path id="&lt;Path&gt;" d="M81.65 348.75C81.65 348.75 81.95 351.45 80.44 353.45C78.94 355.45 76.3 355.95 76.3 355.95C76.3 355.95 76 353.25 77.5 351.25C79 349.25 81.65 348.75 81.65 348.75Z" fill="#FFFFFF" fill-opacity="1.000000" fill-rule="nonzero"/>
		<path id="&lt;Path&gt;" d="M76.34 359.1C76.34 359.1 76.65 361.85 75.15 363.85C73.65 365.8 71 366.35 71 366.35C71 366.35 70.69 363.6 72.19 361.65C73.69 359.65 76.34 359.1 76.34 359.1Z" fill="#FFFFFF" fill-opacity="1.000000" fill-rule="nonzero"/>
		<path id="&lt;Path&gt;" d="M88.95 351.55C88.95 351.55 89.25 354.25 87.75 356.25C86.25 358.25 83.6 358.8 83.6 358.8C83.6 358.8 83.3 356.05 84.8 354.05C86.3 352.05 88.95 351.55 88.95 351.55Z" fill="#FFFFFF" fill-opacity="1.000000" fill-rule="nonzero"/>
		<path id="&lt;Path&gt;" d="M48 351.55C48 351.55 47.75 354.25 49.2 356.25C50.7 358.25 53.4 358.8 53.4 358.8C53.4 358.8 53.65 356.05 52.15 354.05C50.7 352.05 48 351.55 48 351.55Z" fill="#FFFFFF" fill-opacity="1.000000" fill-rule="nonzero"/>
		<path id="&lt;Path&gt;" d="M82.8 336.05C82.8 336.05 83.1 338.75 81.6 340.75C80.15 342.75 77.44 343.25 77.44 343.25C77.44 343.25 77.15 340.55 78.65 338.55C80.15 336.55 82.8 336.05 82.8 336.05Z" fill="#FFFFFF" fill-opacity="1.000000" fill-rule="nonzero"/>
		<path id="&lt;Path&gt;" d="M80.19 322.54C80.19 322.54 81.15 325.1 80.25 327.4C79.3 329.7 76.85 330.9 76.85 330.9C76.85 330.9 75.9 328.35 76.8 326C77.75 323.7 80.19 322.54 80.19 322.54Z" fill="#FFFFFF" fill-opacity="1.000000" fill-rule="nonzero"/>
		<path id="&lt;Path&gt;" d="M61.5 319C61.5 319 63.95 320.29 64.8 322.65C65.64 324.95 64.59 327.5 64.59 327.5C64.59 327.5 62.14 326.2 61.3 323.9C60.5 321.54 61.5 319 61.5 319Z" fill="#FFFFFF" fill-opacity="1.000000" fill-rule="nonzero"/>
		<path id="&lt;Path&gt;" d="M70.25 335.15C70.25 335.15 71.94 337.25 71.8 339.75C71.65 342.25 69.69 344.15 69.69 344.15C69.69 344.15 68 342 68.15 339.55C68.3 337.05 70.25 335.15 70.25 335.15Z" fill="#FFFFFF" fill-opacity="1.000000" fill-rule="nonzero"/>
		<path id="&lt;Path&gt;" d="M69.8 311.15C69.8 311.15 71.5 313.25 71.35 315.75C71.19 318.25 69.25 320.15 69.25 320.15C69.25 320.15 67.55 318 67.69 315.54C67.8 313.04 69.8 311.15 69.8 311.15Z" fill="#FFFFFF" fill-opacity="1.000000" fill-rule="nonzero"/>
		<path id="&lt;Path&gt;" d="M50.2 362.35C50.2 362.35 49.95 365.05 51.4 367.05C52.9 369.05 55.6 369.55 55.6 369.55C55.6 369.55 55.85 366.85 54.35 364.85C52.9 362.85 50.2 362.35 50.2 362.35Z" fill="#FFFFFF" fill-opacity="1.000000" fill-rule="nonzero"/>
		<path id="&lt;Path&gt;" d="M45.15 377.1C45.15 377.1 44.85 379.85 46.35 381.85C47.85 383.85 50.5 384.35 50.5 384.35C50.5 384.35 50.8 381.65 49.3 379.65C47.8 377.65 45.15 377.1 45.15 377.1Z" fill="#FFFFFF" fill-opacity="1.000000" fill-rule="nonzero"/>
		<path id="&lt;Path&gt;" d="M58.6 382.5C58.6 382.5 58.35 385.2 59.8 387.2C61.3 389.2 64 389.7 64 389.7C64 389.7 64.25 387 62.8 385C61.3 383 58.6 382.5 58.6 382.5Z" fill="#FFFFFF" fill-opacity="1.000000" fill-rule="nonzero"/>
		<path id="&lt;Path&gt;" d="M62.3 362C62.3 362 61.25 364.55 62.1 366.9C62.95 369.2 65.4 370.45 65.4 370.45C65.4 370.45 66.4 367.95 65.55 365.6C64.69 363.3 62.3 362 62.3 362Z" fill="#FFFFFF" fill-opacity="1.000000" fill-rule="nonzero"/>
		<path id="&lt;Path&gt;" d="M52.75 416.5C52.75 416.5 55.5 416.55 57.35 414.9C59.2 413.25 59.5 410.55 59.5 410.55C59.5 410.55 56.8 410.5 54.9 412.15C53.05 413.75 52.75 416.5 52.75 416.5Z" fill="#FFFFFF" fill-opacity="1.000000" fill-rule="nonzero"/>
		<path id="&lt;Path&gt;" d="M78.94 413.5C78.94 413.5 79.69 416.15 81.8 417.45C83.9 418.75 86.59 418.25 86.59 418.25C86.59 418.25 85.84 415.6 83.75 414.3C81.64 413 78.94 413.5 78.94 413.5Z" fill="#FFFFFF" fill-opacity="1.000000" fill-rule="nonzero"/>
		<path id="&lt;Path&gt;" d="M55.8 348.75C55.8 348.75 55.5 351.45 57 353.45C58.5 355.45 61.15 355.95 61.15 355.95C61.15 355.95 61.45 353.25 59.95 351.25C58.5 349.25 55.8 348.75 55.8 348.75Z" fill="#FFFFFF" fill-opacity="1.000000" fill-rule="nonzero"/>
		<path id="&lt;Path&gt;" d="M55.75 336.75C55.75 336.75 55.5 339.45 56.95 341.45C58.45 343.45 61.15 343.95 61.15 343.95C61.15 343.95 61.4 341.25 59.9 339.25C58.45 337.25 55.75 336.75 55.75 336.75Z" fill="#FFFFFF" fill-opacity="1.000000" fill-rule="nonzero"/>
		<path id="&lt;Path&gt;" d="M495.9 311.7C495.9 354.25 470.7 388.8 439.65 388.8C408.55 388.8 383.4 354.25 383.4 311.7C383.4 269.1 408.55 122.75 439.65 122.75C470.7 122.75 495.9 269.1 495.9 311.7Z" fill="#0A76EE" fill-opacity="1.000000" fill-rule="nonzero"/>
		<g opacity="0.500000">
			<path id="&lt;Path&gt;" d="M495.9 311.7C495.9 354.25 470.7 388.8 439.65 388.8C408.55 388.8 383.4 354.25 383.4 311.7C383.4 269.1 408.55 122.75 439.65 122.75C470.7 122.75 495.9 269.1 495.9 311.7Z" fill="#65BBF8" fill-opacity="1.000000" fill-rule="nonzero"/>
		</g>
		<path id="&lt;Path&gt;" d="M471.2 333.95L454.15 340.25L457.55 330L449.45 342L441.3 345L440.7 311.35L470.3 272L454.45 287.9L457.15 276.85L449.55 292.79L440.55 301.79L439.65 249.15L436.4 325.9L408.35 296.2L423.8 317.1L409.25 315.5L427.2 321.75L436.1 333.85L434.55 370.85L424.2 363.85L434.2 378.5L429.45 487.5L443.8 487.5L441.4 350.4L471.2 333.95Z" fill="#878787" fill-opacity="1.000000" fill-rule="nonzero"/>
		<path id="&lt;Path&gt;" d="M470.6 249.35C470.6 249.35 471.1 254.5 468.3 258.29C465.45 262.1 460.35 263.04 460.35 263.04C460.35 263.04 459.85 257.9 462.65 254.1C465.5 250.3 470.6 249.35 470.6 249.35Z" fill="#FFFFFF" fill-opacity="1.000000" fill-rule="nonzero"/>
		<path id="&lt;Path&gt;" d="M487.55 273.15C487.55 273.15 488.05 278.29 485.25 282.1C482.4 285.9 477.3 286.9 477.3 286.9C477.3 286.9 476.8 281.75 479.65 277.95C482.45 274.15 487.55 273.15 487.55 273.15Z" fill="#FFFFFF" fill-opacity="1.000000" fill-rule="nonzero"/>
		<path id="&lt;Path&gt;" d="M487.55 319.54C487.55 319.54 486.3 324.6 482.35 327.2C478.4 329.85 473.3 329.05 473.3 329.05C473.3 329.05 474.55 324 478.45 321.35C482.4 318.75 487.55 319.54 487.55 319.54Z" fill="#FFFFFF" fill-opacity="1.000000" fill-rule="nonzero"/>
		<path id="&lt;Path&gt;" d="M394.4 319.54C394.4 319.54 395.65 324.6 399.6 327.2C403.55 329.85 408.65 329.05 408.65 329.05C408.65 329.05 407.4 324 403.5 321.35C399.55 318.75 394.4 319.54 394.4 319.54Z" fill="#FFFFFF" fill-opacity="1.000000" fill-rule="nonzero"/>
		<path id="&lt;Path&gt;" d="M467.95 300.29C467.95 300.29 468.5 305.45 465.65 309.25C462.85 313.04 457.75 314.04 457.75 314.04C457.75 314.04 457.2 308.85 460.05 305.04C462.85 301.25 467.95 300.29 467.95 300.29Z" fill="#FFFFFF" fill-opacity="1.000000" fill-rule="nonzero"/>
		<path id="&lt;Path&gt;" d="M463.55 223.4C463.55 223.4 464.1 228.6 461.25 232.35C458.45 236.15 453.35 237.15 453.35 237.15C453.35 237.15 452.8 232 455.65 228.2C458.45 224.4 463.55 223.4 463.55 223.4Z" fill="#FFFFFF" fill-opacity="1.000000" fill-rule="nonzero"/>
		<path id="&lt;Path&gt;" d="M453.45 243.2C453.45 243.2 454 248.35 451.15 252.15C448.35 255.95 443.25 256.9 443.25 256.9C443.25 256.9 442.7 251.75 445.55 247.95C448.35 244.15 453.45 243.2 453.45 243.2Z" fill="#FFFFFF" fill-opacity="1.000000" fill-rule="nonzero"/>
		<path id="&lt;Path&gt;" d="M477.45 228.8C477.45 228.8 477.95 233.95 475.15 237.75C472.3 241.55 467.2 242.55 467.2 242.55C467.2 242.55 466.7 237.35 469.5 233.55C472.35 229.75 477.45 228.8 477.45 228.8Z" fill="#FFFFFF" fill-opacity="1.000000" fill-rule="nonzero"/>
		<path id="&lt;Path&gt;" d="M399.5 228.8C399.5 228.8 399 233.95 401.8 237.75C404.65 241.55 409.75 242.55 409.75 242.55C409.75 242.55 410.25 237.35 407.45 233.55C404.6 229.75 399.5 228.8 399.5 228.8Z" fill="#FFFFFF" fill-opacity="1.000000" fill-rule="nonzero"/>
		<path id="&lt;Path&gt;" d="M465.75 199.25C465.75 199.25 466.3 204.4 463.45 208.2C460.65 212 455.55 213 455.55 213C455.55 213 455 207.8 457.85 204.05C460.65 200.25 465.75 199.25 465.75 199.25Z" fill="#FFFFFF" fill-opacity="1.000000" fill-rule="nonzero"/>
		<path id="&lt;Path&gt;" d="M460.8 173.6C460.8 173.6 462.6 178.45 460.8 182.85C459.05 187.2 454.35 189.45 454.35 189.45C454.35 189.45 452.55 184.6 454.3 180.2C456.1 175.8 460.8 173.6 460.8 173.6Z" fill="#FFFFFF" fill-opacity="1.000000" fill-rule="nonzero"/>
		<path id="&lt;Path&gt;" d="M425.2 166.9C425.2 166.9 429.8 169.3 431.45 173.75C433.05 178.2 431.05 183 431.05 183C431.05 183 426.45 180.55 424.85 176.1C423.25 171.7 425.2 166.9 425.2 166.9Z" fill="#FFFFFF" fill-opacity="1.000000" fill-rule="nonzero"/>
		<path id="&lt;Path&gt;" d="M441.8 197.55C441.8 197.55 445.1 201.6 444.8 206.3C444.55 211.05 440.85 214.65 440.85 214.65C440.85 214.65 437.55 210.65 437.8 205.9C438.1 201.2 441.8 197.55 441.8 197.55Z" fill="#FFFFFF" fill-opacity="1.000000" fill-rule="nonzero"/>
		<path id="&lt;Path&gt;" d="M440.95 151.89C440.95 151.89 444.2 155.89 443.95 160.64C443.65 165.35 439.95 169 439.95 169C439.95 169 436.65 164.95 436.95 160.25C437.2 155.5 440.95 151.89 440.95 151.89Z" fill="#FFFFFF" fill-opacity="1.000000" fill-rule="nonzero"/>
		<path id="&lt;Path&gt;" d="M403.7 249.35C403.7 249.35 403.15 254.5 406 258.29C408.8 262.1 413.9 263.04 413.9 263.04C413.9 263.04 414.45 257.9 411.6 254.1C408.8 250.3 403.7 249.35 403.7 249.35Z" fill="#FFFFFF" fill-opacity="1.000000" fill-rule="nonzero"/>
		<path id="&lt;Path&gt;" d="M394.05 277.45C394.05 277.45 393.5 282.6 396.35 286.4C399.15 290.2 404.25 291.2 404.25 291.2C404.25 291.2 404.8 286 401.95 282.2C399.15 278.45 394.05 277.45 394.05 277.45Z" fill="#FFFFFF" fill-opacity="1.000000" fill-rule="nonzero"/>
		<path id="&lt;Path&gt;" d="M419.7 287.65C419.7 287.65 419.15 292.79 422 296.6C424.8 300.4 429.9 301.4 429.9 301.4C429.9 301.4 430.45 296.2 427.6 292.45C424.8 288.65 419.7 287.65 419.7 287.65Z" fill="#FFFFFF" fill-opacity="1.000000" fill-rule="nonzero"/>
		<path id="&lt;Path&gt;" d="M426.7 248.7C426.7 248.7 424.7 253.5 426.35 257.95C427.95 262.4 432.55 264.79 432.55 264.79C432.55 264.79 434.55 260 432.9 255.55C431.3 251.1 426.7 248.7 426.7 248.7Z" fill="#FFFFFF" fill-opacity="1.000000" fill-rule="nonzero"/>
		<path id="&lt;Path&gt;" d="M408.55 352.35C408.55 352.35 413.7 352.45 417.3 349.35C420.85 346.2 421.4 341.05 421.4 341.05C421.4 341.05 416.2 340.95 412.65 344.05C409.1 347.2 408.55 352.35 408.55 352.35Z" fill="#FFFFFF" fill-opacity="1.000000" fill-rule="nonzero"/>
		<path id="&lt;Path&gt;" d="M458.4 346.7C458.4 346.7 459.8 351.7 463.8 354.15C467.85 356.65 472.95 355.7 472.95 355.7C472.95 355.7 471.5 350.7 467.5 348.2C463.5 345.7 458.4 346.7 458.4 346.7Z" fill="#FFFFFF" fill-opacity="1.000000" fill-rule="nonzero"/>
		<path id="&lt;Path&gt;" d="M414.35 223.4C414.35 223.4 413.8 228.6 416.65 232.35C419.45 236.15 424.55 237.15 424.55 237.15C424.55 237.15 425.1 232 422.25 228.2C419.45 224.4 414.35 223.4 414.35 223.4Z" fill="#FFFFFF" fill-opacity="1.000000" fill-rule="nonzero"/>
		<path id="&lt;Path&gt;" d="M414.25 200.55C414.25 200.55 413.7 205.75 416.55 209.55C419.35 213.3 424.45 214.3 424.45 214.3C424.45 214.3 425 209.15 422.15 205.35C419.35 201.55 414.25 200.55 414.25 200.55Z" fill="#FFFFFF" fill-opacity="1.000000" fill-rule="nonzero"/>
		<path id="&lt;Path&gt;" d="M437.65 487.5L437.65 477.4L441.75 434.65L371.8 432.75C371.8 432.75 368.9 438.1 366.95 442.2C364.95 446.3 350.6 478.6 350.6 478.6L348.35 487.5L437.65 487.5Z" fill="#263238" fill-opacity="1.000000" fill-rule="nonzero"/>
		<path id="&lt;Path&gt;" d="M437.65 477.4L441.75 434.65L371.8 432.75C371.8 432.75 368.9 438.1 366.95 442.2C364.95 446.3 350.6 478.6 350.6 478.6L348.35 487.5L437.65 487.5L437.65 477.4Z" stroke="#263238" stroke-opacity="1.000000" stroke-width="2.000000" stroke-linejoin="round"/>
		<path id="&lt;Path&gt;" d="M405.85 295C405.85 295 397.8 291.04 391.4 292.15C384.95 293.2 376.25 294.79 371.4 294.79C366.6 294.79 355.35 292.7 355.35 292.7C355.35 292.7 353.75 289.65 359.85 284.1C365.9 278.6 372.3 272.15 372.65 270.04C373 267.9 373.4 266.45 373.4 266.45L354.5 268.04C354.5 268.04 354.85 270.04 353.05 274.15C351.25 278.25 336.65 287.4 331.15 296.15C325.6 304.9 326.04 303.65 329.65 308.1C333.2 312.54 342.15 316.35 358.35 318.54C379.45 321.45 393.7 317.29 393.7 317.29L407.1 298.04L405.85 295Z" fill="#FFFFFF" fill-opacity="1.000000" fill-rule="nonzero"/>
		<path id="&lt;Path&gt;" d="M391.4 292.15C384.95 293.2 376.25 294.79 371.4 294.79C366.6 294.79 355.35 292.7 355.35 292.7C355.35 292.7 353.75 289.65 359.85 284.1C365.9 278.6 372.3 272.15 372.65 270.04C373 267.9 373.4 266.45 373.4 266.45L354.5 268.04C354.5 268.04 354.85 270.04 353.05 274.15C351.25 278.25 336.65 287.4 331.15 296.15C325.6 304.9 326.04 303.65 329.65 308.1C333.2 312.54 342.15 316.35 358.35 318.54C379.45 321.45 393.7 317.29 393.7 317.29L407.1 298.04L405.85 295C405.85 295 397.8 291.04 391.4 292.15Z" stroke="#263238" stroke-opacity="1.000000" stroke-width="2.000000" stroke-linejoin="round"/>
		<path id="&lt;Path&gt;" d="M381.25 303.2C381.25 303.2 386.75 313 387.45 318.35" stroke="#263238" stroke-opacity="1.000000" stroke-width="2.000000" stroke-linejoin="round" stroke-linecap="round"/>
		<path id="&lt;Path&gt;" d="M345.45 306.5C344.45 306.56 343.35 306.53 342.15 306.4" stroke="#263238" stroke-opacity="1.000000" stroke-width="2.000000" stroke-linejoin="round" stroke-linecap="round"/>
		<path id="&lt;Path&gt;" d="M355.7 294.1C355.7 294.1 357.5 297.5 356.1 300.15C355 302.2 352.7 305.25 347.75 306.2" stroke="#263238" stroke-opacity="1.000000" stroke-width="2.000000" stroke-linejoin="round" stroke-linecap="round"/>
		<path id="&lt;Path&gt;" d="M400.15 234.15C400.15 234.15 396.2 238.9 396.4 241.5C396.55 244.15 397.35 244.95 396.05 246.6C394.75 248.25 391.3 249.55 391.65 251.5C391.95 253.45 395.05 254.95 395.05 254.95C395.05 254.95 393.6 257.04 393.95 258.2C394.25 259.35 394.25 259.35 394.25 259.35C394.25 259.35 392.6 261.29 392.95 262.29C393.25 263.29 393.75 264.75 393.75 264.75C393.75 264.75 392.45 269.5 393.6 271.79C394.75 274.1 398.35 275.54 402.6 275.4C406.85 275.25 409.95 284.75 410.45 287.7C410.95 290.6 410.6 292.1 409.95 293.1C409.3 294.04 401.95 294.04 395.9 299.15C389.85 304.2 387.2 310.45 385.75 324.85C384.25 339.25 381.15 383.6 381.15 383.6L376.7 413.9L371.8 432.75C371.8 432.75 404.85 441.75 419.35 440.4C433.8 439 441.75 434.65 441.75 434.65C441.75 434.65 436.55 393.95 436.55 391.2C436.55 388.5 453.75 322.9 453.75 322.9C453.75 322.9 457.85 307.6 456.75 302.7C455.65 297.79 445.3 289.85 442.3 286.85C439.3 283.85 434.1 278.1 434.1 272.9C434.1 267.75 444.2 254.5 445.45 247.9C446.7 241.25 445.45 235.25 445.45 235.25C445.45 235.25 446.7 239.3 447.25 237.05C447.85 234.8 444.75 231 444.75 231C444.75 231 446.85 231.15 445.85 228.05C444.9 224.95 442.8 223.15 442.8 224.55C442.8 225.95 442.8 226.95 442.65 227.35C442.5 227.8 440.4 226.5 430.4 220.5C420.45 214.45 409.5 216 408.8 216.85C408.05 217.65 409.75 213.45 406.1 215.7C402.45 217.95 397.1 222.6 397.7 227.8C398.25 233 400.15 234.15 400.15 234.15Z" fill="#FFFFFF" fill-opacity="1.000000" fill-rule="nonzero"/>
		<path id="&lt;Path&gt;" d="M396.4 241.5C396.55 244.15 397.35 244.95 396.05 246.6C394.75 248.25 391.3 249.55 391.65 251.5C391.95 253.45 395.05 254.95 395.05 254.95C395.05 254.95 393.6 257.04 393.95 258.2C394.25 259.35 394.25 259.35 394.25 259.35C394.25 259.35 392.6 261.29 392.95 262.29C393.25 263.29 393.75 264.75 393.75 264.75C393.75 264.75 392.45 269.5 393.6 271.79C394.75 274.1 398.35 275.54 402.6 275.4C406.85 275.25 409.95 284.75 410.45 287.7C410.95 290.6 410.6 292.1 409.95 293.1C409.3 294.04 401.95 294.04 395.9 299.15C389.85 304.2 387.2 310.45 385.75 324.85C384.25 339.25 381.15 383.6 381.15 383.6L376.7 413.9L371.8 432.75C371.8 432.75 404.85 441.75 419.35 440.4C433.8 439 441.75 434.65 441.75 434.65C441.75 434.65 436.55 393.95 436.55 391.2C436.55 388.5 453.75 322.9 453.75 322.9C453.75 322.9 457.85 307.6 456.75 302.7C455.65 297.79 445.3 289.85 442.3 286.85C439.3 283.85 434.1 278.1 434.1 272.9C434.1 267.75 444.2 254.5 445.45 247.9C446.7 241.25 445.45 235.25 445.45 235.25C445.45 235.25 446.7 239.3 447.25 237.05C447.85 234.8 444.75 231 444.75 231C444.75 231 446.85 231.15 445.85 228.05C444.9 224.95 442.8 223.15 442.8 224.55C442.8 225.95 442.8 226.95 442.65 227.35C442.5 227.8 440.4 226.5 430.4 220.5C420.45 214.45 409.5 216 408.8 216.85C408.05 217.65 409.75 213.45 406.1 215.7C402.45 217.95 397.1 222.6 397.7 227.8C398.25 233 400.15 234.15 400.15 234.15C400.15 234.15 396.2 238.9 396.4 241.5Z" stroke="#263238" stroke-opacity="1.000000" stroke-width="2.000000" stroke-linejoin="round"/>
		<path id="&lt;Path&gt;" d="M420.85 250.1C421.7 250.85 422.1 252.35 422.95 250.55C423.8 248.7 425.8 245.5 430.55 246.75C435.35 248 434.5 253.1 433.65 256.15C432.85 259 433.65 267.79 434.85 269.75C437.2 263.5 444.4 253.4 445.45 247.9C446.7 241.25 445.45 235.25 445.45 235.25C445.45 235.25 446.7 239.3 447.25 237.05C447.85 234.8 444.75 231 444.75 231C444.75 231 446.85 231.15 445.85 228.05C444.9 224.95 442.8 223.15 442.8 224.55C442.8 225.95 442.8 226.95 442.65 227.35C442.5 227.8 440.4 226.5 430.4 220.5C420.45 214.45 409.5 216 408.8 216.85C408.05 217.65 409.75 213.45 406.1 215.7C402.45 217.95 397.1 222.6 397.7 227.8C398.25 232.85 400.05 234.1 400.15 234.15C400.1 234.1 399.95 233.7 405.1 230.6C410.75 227.2 419.15 230.3 415.8 233.85C412.45 237.35 414.8 238.6 418.35 241.15C421.85 243.65 420 249.4 420.85 250.1Z" fill="#263238" fill-opacity="1.000000" fill-rule="nonzero"/>
		<path id="&lt;Path&gt;" d="M422.95 250.55C423.8 248.7 425.8 245.5 430.55 246.75C435.35 248 434.5 253.1 433.65 256.15C432.85 259 433.65 267.79 434.85 269.75C437.2 263.5 444.4 253.4 445.45 247.9C446.7 241.25 445.45 235.25 445.45 235.25C445.45 235.25 446.7 239.3 447.25 237.05C447.85 234.8 444.75 231 444.75 231C444.75 231 446.85 231.15 445.85 228.05C444.9 224.95 442.8 223.15 442.8 224.55C442.8 225.95 442.8 226.95 442.65 227.35C442.5 227.8 440.4 226.5 430.4 220.5C420.45 214.45 409.5 216 408.8 216.85C408.05 217.65 409.75 213.45 406.1 215.7C402.45 217.95 397.1 222.6 397.7 227.8C398.25 232.85 400.05 234.1 400.15 234.15C400.1 234.1 399.95 233.7 405.1 230.6C410.75 227.2 419.15 230.3 415.8 233.85C412.45 237.35 414.8 238.6 418.35 241.15C421.85 243.65 420 249.4 420.85 250.1C421.7 250.85 422.1 252.35 422.95 250.55Z" stroke="#263238" stroke-opacity="1.000000" stroke-width="2.000000" stroke-linejoin="round"/>
		<path id="&lt;Path&gt;" d="M425.5 249.7C425.5 249.7 429.45 245.65 432.25 247.75C435.05 249.85 433.35 256.04 431.7 257.54C430 259.1 424.5 261.95 423.4 259.54M426.21 250.37L426.21 250.39C425.82 250.79 425.2 250.8 424.8 250.41C424.4 250.02 424.39 249.4 424.78 249L424.81 249L426.21 250.37ZM422.51 259.97L422.49 259.96C422.25 259.45 422.47 258.87 422.98 258.64C423.49 258.4 424.07 258.62 424.3 259.13L424.29 259.16L422.51 259.97Z" fill="#FFFFFF" fill-opacity="1.000000" fill-rule="nonzero"/>
		<path id="&lt;Path&gt;" d="M425.5 249.7C425.5 249.7 429.45 245.65 432.25 247.75C435.05 249.85 433.35 256.04 431.7 257.54C430 259.1 424.5 261.95 423.4 259.54" stroke="#263238" stroke-opacity="1.000000" stroke-width="2.000000" stroke-linejoin="round" stroke-linecap="round"/>
		<path id="&lt;Path&gt;" d="M401 241.25C401 241.25 404.7 239.05 409.05 242" stroke="#263238" stroke-opacity="1.000000" stroke-width="4.000000" stroke-linejoin="round" stroke-linecap="round"/>
		<path id="&lt;Path&gt;" d="M401.1 245.9C401.1 245.9 403.1 247.9 407.5 245.9" stroke="#263238" stroke-opacity="1.000000" stroke-width="2.000000" stroke-linejoin="round" stroke-linecap="round"/>
		<path id="&lt;Path&gt;" d="M402.6 275.4C402.6 275.4 410.2 276 414.25 272.2C414.25 272.2 411 279.35 408.35 281.04C408.35 281.04 405.55 275.25 402.6 275.4Z" fill="#263238" fill-opacity="1.000000" fill-rule="nonzero"/>
		<path id="&lt;Path&gt;" d="M414.25 272.2C414.25 272.2 411 279.35 408.35 281.04C408.35 281.04 405.55 275.25 402.6 275.4C402.6 275.4 410.2 276 414.25 272.2Z" stroke="#263238" stroke-opacity="1.000000" stroke-width="2.000000" stroke-linejoin="round"/>
		<path id="&lt;Path&gt;" d="M444.55 288.95C443.55 289.15 441.8 289.6 439.4 290.6C435.6 292.15 420.6 304.65 413.85 309.4C407.1 314.2 400.75 316.15 398.5 311.79C396.25 307.45 400.5 301.25 402.05 298.6C403.6 295.95 407.25 295.65 408.8 294.4C409.35 293.95 409.65 293.5 409.85 293.15C408.8 294.04 401.75 294.25 395.9 299.15C389.85 304.2 387.2 310.45 385.75 324.85C384.25 339.25 381.15 383.6 381.15 383.6L376.7 413.9L371.8 432.75C371.8 432.75 404.85 441.75 419.35 440.4C433.8 439 441.75 434.65 441.75 434.65C441.75 434.65 436.55 393.95 436.55 391.2C436.55 388.5 453.75 322.9 453.75 322.9C453.75 322.9 457.85 307.6 456.75 302.7C455.85 298.65 448.75 292.65 444.55 288.95Z" fill="#65BBF8" fill-opacity="1.000000" fill-rule="nonzero"/>
		<path id="&lt;Path&gt;" d="M439.4 290.6C435.6 292.15 420.6 304.65 413.85 309.4C407.1 314.2 400.75 316.15 398.5 311.79C396.25 307.45 400.5 301.25 402.05 298.6C403.6 295.95 407.25 295.65 408.8 294.4C409.35 293.95 409.65 293.5 409.85 293.15C408.8 294.04 401.75 294.25 395.9 299.15C389.85 304.2 387.2 310.45 385.75 324.85C384.25 339.25 381.15 383.6 381.15 383.6L376.7 413.9L371.8 432.75C371.8 432.75 404.85 441.75 419.35 440.4C433.8 439 441.75 434.65 441.75 434.65C441.75 434.65 436.55 393.95 436.55 391.2C436.55 388.5 453.75 322.9 453.75 322.9C453.75 322.9 457.85 307.6 456.75 302.7C455.85 298.65 448.75 292.65 444.55 288.95C443.55 289.15 441.8 289.6 439.4 290.6Z" stroke="#263238" stroke-opacity="1.000000" stroke-width="2.000000" stroke-linejoin="round"/>
		<path id="&lt;Path&gt;" d="M426 376C427.35 377.25 428.65 378.25 429.8 378.9" stroke="#263238" stroke-opacity="1.000000" stroke-width="2.000000" stroke-linejoin="round" stroke-linecap="round"/>
		<path id="&lt;Path&gt;" d="M402.95 347.85C402.95 347.85 414.65 364.95 424 374.15" stroke="#263238" stroke-opacity="1.000000" stroke-width="2.000000" stroke-linejoin="round" stroke-linecap="round"/>
		<path id="&lt;Path&gt;" d="M412.8 433.3C415.6 434.05 418.55 434.7 421.65 435.35" stroke="#263238" stroke-opacity="1.000000" stroke-width="2.000000" stroke-linejoin="round" stroke-linecap="round"/>
		<path id="&lt;Path&gt;" d="M384.85 423C384.85 423 393.55 427.7 407.85 431.9" stroke="#263238" stroke-opacity="1.000000" stroke-width="2.000000" stroke-linejoin="round" stroke-linecap="round"/>
		<path id="&lt;Path&gt;" d="M387.25 428.4C387.25 428.4 406 435.65 415.95 435.95" stroke="#263238" stroke-opacity="1.000000" stroke-width="2.000000" stroke-linejoin="round" stroke-linecap="round"/>
		<path id="&lt;Path&gt;" d="M365.35 268.9C365.35 268.9 359.5 271.1 359.8 273.35C360.05 275.6 361.85 276.75 363.4 276.75" stroke="#263238" stroke-opacity="1.000000" stroke-width="2.000000" stroke-linejoin="round" stroke-linecap="round"/>
		<path id="&lt;Path&gt;" d="M386.85 256.65C387.2 260.79 386.75 264.25 385.75 264.35C384.8 264.45 383.7 261.15 383.3 256.95C382.9 252.8 383.4 249.35 384.35 249.25C385.35 249.15 386.45 252.45 386.85 256.65Z" fill="#FFFFFF" fill-opacity="1.000000" fill-rule="nonzero"/>
		<path id="&lt;Path&gt;" d="M385.75 264.35C384.8 264.45 383.7 261.15 383.3 256.95C382.9 252.8 383.4 249.35 384.35 249.25C385.35 249.15 386.45 252.45 386.85 256.65C387.2 260.79 386.75 264.25 385.75 264.35Z" stroke="#263238" stroke-opacity="1.000000" stroke-width="2.000000" stroke-linejoin="round"/>
		<path id="&lt;Path&gt;" d="M391.35 256.2C390.95 252.05 389.85 248.75 388.9 248.8L384.35 249.25L385.75 264.35L390.3 263.9C391.3 263.85 391.75 260.35 391.35 256.2Z" fill="#62CDFA" fill-opacity="1.000000" fill-rule="nonzero"/>
		<path id="&lt;Path&gt;" d="M388.9 248.8L384.35 249.25L385.75 264.35L390.3 263.9C391.3 263.85 391.75 260.35 391.35 256.2C390.95 252.05 389.85 248.75 388.9 248.8Z" stroke="#263238" stroke-opacity="1.000000" stroke-width="2.000000" stroke-linejoin="round"/>
		<path id="&lt;Path&gt;" d="M339.6 251.5C339.6 251.5 340.45 250.9 341.9 250.7C343.35 250.45 381.25 248.15 382.8 248.5C384.3 248.85 384.35 249.25 384.35 249.25L385.75 264.35C385.75 264.35 384.95 265.45 382.7 265.85C380.5 266.29 343.3 268.4 342.55 268.54C341.8 268.65 341.6 268.25 341.2 268.35C340.8 268.4 339.6 251.5 339.6 251.5Z" fill="#FFFFFF" fill-opacity="1.000000" fill-rule="nonzero"/>
		<path id="&lt;Path&gt;" d="M341.9 250.7C343.35 250.45 381.25 248.15 382.8 248.5C384.3 248.85 384.35 249.25 384.35 249.25L385.75 264.35C385.75 264.35 384.95 265.45 382.7 265.85C380.5 266.29 343.3 268.4 342.55 268.54C341.8 268.65 341.6 268.25 341.2 268.35C340.8 268.4 339.6 251.5 339.6 251.5C339.6 251.5 340.45 250.9 341.9 250.7Z" stroke="#263238" stroke-opacity="1.000000" stroke-width="2.000000" stroke-linejoin="round"/>
		<path id="&lt;Path&gt;" d="M363.85 249.15C363.85 249.15 363.1 247.8 362.05 247.4C360.95 247.05 358.1 247.25 358.35 248.25C358.6 249.2 358.6 249.2 358.6 249.2L363.85 249.15Z" fill="#FFFFFF" fill-opacity="1.000000" fill-rule="nonzero"/>
		<path id="&lt;Path&gt;" d="M362.05 247.4C360.95 247.05 358.1 247.25 358.35 248.25C358.6 249.2 358.6 249.2 358.6 249.2L363.85 249.15C363.85 249.15 363.1 247.8 362.05 247.4Z" stroke="#263238" stroke-opacity="1.000000" stroke-width="2.000000" stroke-linejoin="round"/>
		<path id="&lt;Path&gt;" d="M371.2 248.6C371.2 248.6 369.25 246.7 367.55 247.05C366.2 247.35 366.65 249.05 366.65 249.05L371.2 248.6Z" fill="#FFFFFF" fill-opacity="1.000000" fill-rule="nonzero"/>
		<path id="&lt;Path&gt;" d="M367.55 247.05C366.2 247.35 366.65 249.05 366.65 249.05L371.2 248.6C371.2 248.6 369.25 246.7 367.55 247.05Z" stroke="#263238" stroke-opacity="1.000000" stroke-width="2.000000" stroke-linejoin="round"/>
		<path id="&lt;Path&gt;" d="M377.15 248.4C377.15 248.4 375.2 246.5 373.45 246.9C372.15 247.15 372.55 248.85 372.55 248.85L377.15 248.4Z" fill="#FFFFFF" fill-opacity="1.000000" fill-rule="nonzero"/>
		<path id="&lt;Path&gt;" d="M373.45 246.9C372.15 247.15 372.55 248.85 372.55 248.85L377.15 248.4C377.15 248.4 375.2 246.5 373.45 246.9Z" stroke="#263238" stroke-opacity="1.000000" stroke-width="2.000000" stroke-linejoin="round"/>
		<path id="&lt;Path&gt;" d="M376.7 249.95C376.7 249.95 377.05 255.05 376.15 257.85C375.25 260.65 374.2 263.45 374.2 263.45" stroke="#263238" stroke-opacity="1.000000" stroke-width="2.000000" stroke-linejoin="round" stroke-linecap="round"/>
		<path id="&lt;Path&gt;" d="M367.35 250.3C367.35 250.3 369.05 253.2 368.5 254.35C368 255.5 367.7 256.25 367.7 256.25" stroke="#263238" stroke-opacity="1.000000" stroke-width="2.000000" stroke-linejoin="round" stroke-linecap="round"/>
		<path id="&lt;Path&gt;" d="M364 250.4C364 250.4 365.35 252.9 365.55 254.6" stroke="#263238" stroke-opacity="1.000000" stroke-width="2.000000" stroke-linejoin="round" stroke-linecap="round"/>
		<path id="&lt;Path&gt;" d="M359.95 250.75C359.95 250.75 361.25 253.55 361.3 254.9C361.4 256.25 360.95 257.29 360.6 257.25C360.25 257.15 356.4 252.9 354.95 252.2" stroke="#263238" stroke-opacity="1.000000" stroke-width="2.000000" stroke-linejoin="round" stroke-linecap="round"/>
		<path id="&lt;Path&gt;" d="M352.05 254.25C352.05 254.25 355.5 257.75 355.85 259.1C356.2 260.45 354.85 265.75 354.85 265.75" stroke="#263238" stroke-opacity="1.000000" stroke-width="2.000000" stroke-linejoin="round" stroke-linecap="round"/>
		<path id="&lt;Path&gt;" d="M391.1 253.8L393.7 253.8C393.7 253.8 394.5 254.8 394.6 256.85C394.7 258.95 394 260.4 394 260.4L391.35 260.75C391.35 260.75 391.9 255.8 391.1 253.8Z" fill="#62CDFA" fill-opacity="1.000000" fill-rule="nonzero"/>
		<path id="&lt;Path&gt;" d="M393.7 253.8C393.7 253.8 394.5 254.8 394.6 256.85C394.7 258.95 394 260.4 394 260.4L391.35 260.75C391.35 260.75 391.9 255.8 391.1 253.8L393.7 253.8Z" stroke="#263238" stroke-opacity="1.000000" stroke-width="2.000000" stroke-linejoin="round"/>
		<path id="&lt;Path&gt;" d="M390.4 442.55C390.05 455.2 388.4 467.8 388.95 480.35" stroke="#8A8A8A" stroke-opacity="1.000000" stroke-width="2.000000" stroke-linejoin="round" stroke-linecap="round"/>
		<path id="&lt;Path&gt;" d="M376.15 458C376.15 458 381.7 476.65 384.5 482" stroke="#8A8A8A" stroke-opacity="1.000000" stroke-width="2.000000" stroke-linejoin="round" stroke-linecap="round"/>
		<path id="&lt;Path&gt;" d="M342.45 257.15L340.05 257.25C340.45 262.15 340.95 268.4 341.2 268.35C341.6 268.25 341.8 268.65 342.55 268.54C343.3 268.4 380.5 266.29 382.7 265.85C384.95 265.45 385.75 264.35 385.75 264.35L385.1 257.25L342.45 257.15Z" fill="#62CDFA" fill-opacity="1.000000" fill-rule="nonzero"/>
		<path id="&lt;Path&gt;" d="M340.05 257.25C340.45 262.15 340.95 268.4 341.2 268.35C341.6 268.25 341.8 268.65 342.55 268.54C343.3 268.4 380.5 266.29 382.7 265.85C384.95 265.45 385.75 264.35 385.75 264.35L385.1 257.25L342.45 257.15L340.05 257.25Z" stroke="#263238" stroke-opacity="1.000000" stroke-width="2.000000" stroke-linejoin="round"/>
		<path id="&lt;Path&gt;" d="M366.45 277.6C366.45 277.6 372.65 273 374.05 271.2C375.45 269.4 375.25 269.1 375 268.4C374.75 267.65 374 266.85 373.45 265.4C372.95 263.95 370.75 263.25 369.95 265.7C369.15 268.1 370.15 269.75 370.5 270.25C370.85 270.79 370.85 271.35 370.85 271.35M367.05 278.37L367.04 278.4C366.59 278.73 365.98 278.64 365.64 278.19C365.31 277.74 365.4 277.13 365.85 276.79L365.88 276.8L367.05 278.37ZM371.83 271.32L371.85 271.35C371.85 271.91 371.41 272.35 370.85 272.35C370.29 272.35 369.85 271.91 369.85 271.35L369.87 271.32L371.83 271.32Z" fill="#FFFFFF" fill-opacity="1.000000" fill-rule="nonzero"/>
		<path id="&lt;Path&gt;" d="M366.45 277.6C366.45 277.6 372.65 273 374.05 271.2C375.45 269.4 375.25 269.1 375 268.4C374.75 267.65 374 266.85 373.45 265.4C372.95 263.95 370.75 263.25 369.95 265.7C369.15 268.1 370.15 269.75 370.5 270.25C370.85 270.79 370.85 271.35 370.85 271.35" stroke="#263238" stroke-opacity="1.000000" stroke-width="2.000000" stroke-linejoin="round" stroke-linecap="round"/>
		<path id="&lt;Path&gt;" d="M342.35 259.75C342.8 264.4 342.3 268.25 341.2 268.35C340.1 268.45 338.9 264.75 338.45 260.1C338 255.45 338.55 251.6 339.6 251.5C340.7 251.4 341.95 255.1 342.35 259.75Z" fill="#FFFFFF" fill-opacity="1.000000" fill-rule="nonzero"/>
		<path id="&lt;Path&gt;" d="M341.2 268.35C340.1 268.45 338.9 264.75 338.45 260.1C338 255.45 338.55 251.6 339.6 251.5C340.7 251.4 341.95 255.1 342.35 259.75C342.8 264.4 342.3 268.25 341.2 268.35Z" stroke="#263238" stroke-opacity="1.000000" stroke-width="2.000000" stroke-linejoin="round"/>
		<path id="&lt;Path&gt;" d="M448.3 292.5C448.3 292.5 440.95 292.85 433.3 303.9C425.65 314.95 425.8 329.25 429.75 335.65C433.65 342.1 438.65 346.7 438.65 346.7L445.05 378.1C445.05 378.1 439.55 397.55 438.3 405.4C437.05 413.25 422.6 443.9 422.4 444.45C422.25 445 412.25 457.1 412.1 458.55C411.9 459.95 408.15 469.6 407.25 471.55C406.35 473.5 407.25 474.05 409.25 473.5C411.2 473 413.7 470.15 413.7 470.15C413.7 470.15 412.6 477.1 412.25 479.05C411.9 481 409.25 481 410.3 482.8C411.35 484.6 416.55 482.25 417.45 481.9C418.3 481.55 427.05 480.85 429.55 478.7C432.05 476.55 434.55 472.1 434.9 468.7C435.25 465.3 435.6 454.1 436.7 448.9C437.75 443.75 461.15 409.5 464.15 400.95C467.2 392.35 468.8 379.9 468.45 377.75C468.1 375.6 468.45 340.45 467.7 328.7C467 316.95 461.85 304.25 458.8 299.79C455.8 295.35 448.3 292.5 448.3 292.5Z" fill="#FFFFFF" fill-opacity="1.000000" fill-rule="nonzero"/>
		<path id="&lt;Path&gt;" d="M433.3 303.9C425.65 314.95 425.8 329.25 429.75 335.65C433.65 342.1 438.65 346.7 438.65 346.7L445.05 378.1C445.05 378.1 439.55 397.55 438.3 405.4C437.05 413.25 422.6 443.9 422.4 444.45C422.25 445 412.25 457.1 412.1 458.55C411.9 459.95 408.15 469.6 407.25 471.55C406.35 473.5 407.25 474.05 409.25 473.5C411.2 473 413.7 470.15 413.7 470.15C413.7 470.15 412.6 477.1 412.25 479.05C411.9 481 409.25 481 410.3 482.8C411.35 484.6 416.55 482.25 417.45 481.9C418.3 481.55 427.05 480.85 429.55 478.7C432.05 476.55 434.55 472.1 434.9 468.7C435.25 465.3 435.6 454.1 436.7 448.9C437.75 443.75 461.15 409.5 464.15 400.95C467.2 392.35 468.8 379.9 468.45 377.75C468.1 375.6 468.45 340.45 467.7 328.7C467 316.95 461.85 304.25 458.8 299.79C455.8 295.35 448.3 292.5 448.3 292.5C448.3 292.5 440.95 292.85 433.3 303.9Z" stroke="#263238" stroke-opacity="1.000000" stroke-width="2.000000" stroke-linejoin="round"/>
		<path id="&lt;Path&gt;" d="M438.65 346.7L436.25 333.75C436.25 333.75 433.1 331.75 430.75 328.2" stroke="#263238" stroke-opacity="1.000000" stroke-width="2.000000" stroke-linejoin="round" stroke-linecap="round"/>
		<path id="&lt;Path&gt;" d="M417.45 481.9C417.45 481.9 419.85 478.6 420.25 476.85C420.65 475.05 422.05 467.95 422.05 467.95" stroke="#263238" stroke-opacity="1.000000" stroke-width="2.000000" stroke-linejoin="round" stroke-linecap="round"/>
		<path id="&lt;Path&gt;" d="M423.4 480.6C423.4 480.6 425 478.4 425 476.65C425 474.85 426.8 467.55 426.8 467.55" stroke="#263238" stroke-opacity="1.000000" stroke-width="2.000000" stroke-linejoin="round" stroke-linecap="round"/>
		<path id="&lt;Path&gt;" d="M426.8 479.8C426.8 479.8 428.75 479 429.55 474.45C430.35 469.9 431.5 466.95 431.5 466.95" stroke="#263238" stroke-opacity="1.000000" stroke-width="2.000000" stroke-linejoin="round" stroke-linecap="round"/>
		<path id="&lt;Path&gt;" d="M413.7 470.15L415.1 459.65" stroke="#263238" stroke-opacity="1.000000" stroke-width="2.000000" stroke-linejoin="round" stroke-linecap="round"/>
		<path id="&lt;Path&gt;" d="M132.14 130.85C132.14 130.85 135.6 132.45 140.3 128.75C145.05 125 158 118.8 161.2 129.45C164.45 140.1 160 147.55 156.5 149.55C153.05 151.55 142.35 148.05 139.39 143.85C136.39 139.6 127.65 133.85 132.14 130.85Z" fill="#263238" fill-opacity="1.000000" fill-rule="nonzero"/>
		<path id="&lt;Path&gt;" d="M140.3 128.75C145.05 125 158 118.8 161.2 129.45C164.45 140.1 160 147.55 156.5 149.55C153.05 151.55 142.35 148.05 139.39 143.85C136.39 139.6 127.65 133.85 132.14 130.85C132.14 130.85 135.6 132.45 140.3 128.75Z" stroke="#263238" stroke-opacity="1.000000" stroke-width="2.000000" stroke-linejoin="round"/>
		<path id="&lt;Path&gt;" d="M121.45 487.5L246.7 487.5L240.55 441.35C240.55 439.2 238.7 397.9 240.05 386.15C241.4 374.35 247.8 369.55 246.2 355.9C244.6 342.2 215.7 292.7 215.7 292.7C215.7 292.7 205.25 273.7 195.6 265.9C185.95 258.15 177.4 256 170.7 256C164 256 121.95 279.29 118.2 288.15C114.45 296.95 129.2 430.85 129.2 430.85L121.45 487.5Z" fill="#65BBF8" fill-opacity="1.000000" fill-rule="nonzero"/>
		<path id="&lt;Path&gt;" d="M246.7 487.5L240.55 441.35C240.55 439.2 238.7 397.9 240.05 386.15C241.4 374.35 247.8 369.55 246.2 355.9C244.6 342.2 215.7 292.7 215.7 292.7C215.7 292.7 205.25 273.7 195.6 265.9C185.95 258.15 177.4 256 170.7 256C164 256 121.95 279.29 118.2 288.15C114.45 296.95 129.2 430.85 129.2 430.85L121.45 487.5L246.7 487.5Z" stroke="#263238" stroke-opacity="1.000000" stroke-width="2.000000" stroke-linejoin="round"/>
		<path id="&lt;Path&gt;" d="M198.75 463.55C200.61 464.28 202.46 464.98 204.3 465.65" stroke="#263238" stroke-opacity="1.000000" stroke-width="2.000000" stroke-linejoin="round" stroke-linecap="round"/>
		<path id="&lt;Path&gt;" d="M146.2 438.85C146.2 438.85 169.95 451.95 195.1 462.1" stroke="#263238" stroke-opacity="1.000000" stroke-width="2.000000" stroke-linejoin="round" stroke-linecap="round"/>
		<path id="&lt;Path&gt;" d="M139 446.1C139 446.1 159.95 452.25 163.75 452.95" stroke="#263238" stroke-opacity="1.000000" stroke-width="2.000000" stroke-linejoin="round" stroke-linecap="round"/>
		<path id="&lt;Path&gt;" d="M187.35 402.5C185.31 403 183.18 403.43 180.95 403.8" stroke="#263238" stroke-opacity="1.000000" stroke-width="2.000000" stroke-linejoin="round" stroke-linecap="round"/>
		<path id="&lt;Path&gt;" d="M223.55 375.25C223.55 375.25 217.5 392.95 192.65 401" stroke="#263238" stroke-opacity="1.000000" stroke-width="2.000000" stroke-linejoin="round" stroke-linecap="round"/>
		<path id="&lt;Path&gt;" d="M96.7 487.5L138.75 487.5L135.35 425.25C135.35 425.25 144.45 359.35 144.2 347.05C143.89 334.75 143.39 303.95 132.95 292.15C122.5 280.35 113.95 283.04 113.95 283.04C113.95 283.04 103.75 287.04 100 303.15C96.25 319.2 93.6 414.25 93.6 414.25C93.6 414.25 93.85 421.75 94.1 431.65C94.35 440.5 96.3 479.15 96.7 487.5Z" fill="#FFFFFF" fill-opacity="1.000000" fill-rule="nonzero"/>
		<path id="&lt;Path&gt;" d="M138.75 487.5L135.35 425.25C135.35 425.25 144.45 359.35 144.2 347.05C143.89 334.75 143.39 303.95 132.95 292.15C122.5 280.35 113.95 283.04 113.95 283.04C113.95 283.04 103.75 287.04 100 303.15C96.25 319.2 93.6 414.25 93.6 414.25C93.6 414.25 93.85 421.75 94.1 431.65C94.35 440.5 96.3 479.15 96.7 487.5L138.75 487.5Z" stroke="#263238" stroke-opacity="1.000000" stroke-width="2.000000" stroke-linejoin="round"/>
		<path id="&lt;Path&gt;" d="M265.75 188.55C265.75 188.55 268.04 200.65 268.9 205.8C269.7 210.95 268.2 212.4 277.65 220.85C287.1 229.3 323.9 265.6 336.3 284C348.75 302.4 355.7 312.29 353.7 318.6C351.7 324.9 339.45 330.85 332.15 332.2C324.9 333.55 300.35 335.35 279.5 334.35C258.6 333.35 247.2 331.7 247.2 331.7L214.55 261.95C214.55 261.95 241.05 276.85 260.6 281.85C280.15 286.79 292.4 289.6 292.4 289.6C292.4 289.6 279.15 260.79 266.25 247.05C253.3 233.3 246.35 226.85 242.05 220.7C237.75 214.55 231.75 190.55 231.75 190.55L265.75 188.55Z" fill="#FFFFFF" fill-opacity="1.000000" fill-rule="nonzero"/>
		<path id="&lt;Path&gt;" d="M268.9 205.8C269.7 210.95 268.2 212.4 277.65 220.85C287.1 229.3 323.9 265.6 336.3 284C348.75 302.4 355.7 312.29 353.7 318.6C351.7 324.9 339.45 330.85 332.15 332.2C324.9 333.55 300.35 335.35 279.5 334.35C258.6 333.35 247.2 331.7 247.2 331.7L214.55 261.95C214.55 261.95 241.05 276.85 260.6 281.85C280.15 286.79 292.4 289.6 292.4 289.6C292.4 289.6 279.15 260.79 266.25 247.05C253.3 233.3 246.35 226.85 242.05 220.7C237.75 214.55 231.75 190.55 231.75 190.55L265.75 188.55C265.75 188.55 268.04 200.65 268.9 205.8Z" stroke="#263238" stroke-opacity="1.000000" stroke-width="2.000000" stroke-linejoin="round"/>
		<path id="&lt;Path&gt;" d="M267 297.75C280.2 310.45 285.25 318.54 282.85 322.65C280.5 326.75 267 334.55 267 334.55C267 334.55 263.65 325.65 249 306.9C234.3 288.1 223.75 266.1 223.75 266.1C223.75 266.1 253.85 285 267 297.75Z" stroke="#263238" stroke-opacity="1.000000" stroke-width="2.000000" stroke-linejoin="round"/>
		<path id="&lt;Path&gt;" d="M183.15 245.15C183.15 245.15 197.85 246.25 209.25 251.85C220.7 257.45 249.85 290.7 263.45 316.79C277.04 342.95 277.04 348.1 277.04 348.1C277.04 348.1 271.45 351.55 259.15 355.9C246.8 360.2 243.6 361.3 241.85 359.55C240.15 357.85 228.5 329.55 216.15 303.2C203.85 276.9 183.6 265 183.6 265L183.15 245.15Z" fill="#FFFFFF" fill-opacity="1.000000" fill-rule="nonzero"/>
		<path id="&lt;Path&gt;" d="M209.25 251.85C220.7 257.45 249.85 290.7 263.45 316.79C277.04 342.95 277.04 348.1 277.04 348.1C277.04 348.1 271.45 351.55 259.15 355.9C246.8 360.2 243.6 361.3 241.85 359.55C240.15 357.85 228.5 329.55 216.15 303.2C203.85 276.9 183.6 265 183.6 265L183.15 245.15C183.15 245.15 197.85 246.25 209.25 251.85Z" stroke="#263238" stroke-opacity="1.000000" stroke-width="2.000000" stroke-linejoin="round"/>
		<path id="&lt;Path&gt;" d="M207.65 272.9C209.2 274.65 210.75 276.65 212.25 278.9" stroke="#263238" stroke-opacity="1.000000" stroke-width="2.000000" stroke-linejoin="round" stroke-linecap="round"/>
		<path id="&lt;Path&gt;" d="M185.8 259.15C185.8 259.15 195.15 260.29 205.1 270.2" stroke="#263238" stroke-opacity="1.000000" stroke-width="2.000000" stroke-linejoin="round" stroke-linecap="round"/>
		<path id="&lt;Path&gt;" d="M135.89 136.14C135.89 136.14 147.05 136.14 155.5 141.85C163.95 147.55 168.4 157 171.9 158.25C175.35 159.5 188.75 157.75 191 160.95C193.25 164.2 191 169.15 189.75 170.65C188.5 172.15 195.45 174.6 196.2 175.35C196.95 176.1 197.7 178.6 196.95 179.6C196.2 180.55 198.45 179.1 200.2 180.3C201.9 181.55 201.2 185.55 201.2 185.55C201.2 185.55 208.6 192.5 207.9 197.2C207.15 201.9 201.9 207.85 194.45 211.1C187.05 214.3 182.8 222 183.3 236.15C183.8 250.3 185.55 264.95 185.55 264.95C185.55 264.95 209.85 290.5 211.6 307.9C213.35 325.25 192 339.4 176.35 326C160.7 312.6 142.85 275.15 137.64 267.95C132.45 260.75 137.14 238.4 123.5 225.5C109.85 212.6 93.95 192.25 94.95 177.35C95.95 162.45 107.35 138.39 135.89 136.14Z" fill="#FFFFFF" fill-opacity="1.000000" fill-rule="nonzero"/>
		<path id="&lt;Path&gt;" d="M155.5 141.85C163.95 147.55 168.4 157 171.9 158.25C175.35 159.5 188.75 157.75 191 160.95C193.25 164.2 191 169.15 189.75 170.65C188.5 172.15 195.45 174.6 196.2 175.35C196.95 176.1 197.7 178.6 196.95 179.6C196.2 180.55 198.45 179.1 200.2 180.3C201.9 181.55 201.2 185.55 201.2 185.55C201.2 185.55 208.6 192.5 207.9 197.2C207.15 201.9 201.9 207.85 194.45 211.1C187.05 214.3 182.8 222 183.3 236.15C183.8 250.3 185.55 264.95 185.55 264.95C185.55 264.95 209.85 290.5 211.6 307.9C213.35 325.25 192 339.4 176.35 326C160.7 312.6 142.85 275.15 137.64 267.95C132.45 260.75 137.14 238.4 123.5 225.5C109.85 212.6 93.95 192.25 94.95 177.35C95.95 162.45 107.35 138.39 135.89 136.14C135.89 136.14 147.05 136.14 155.5 141.85Z" stroke="#263238" stroke-opacity="1.000000" stroke-width="2.000000" stroke-linejoin="round"/>
		<path id="&lt;Path&gt;" d="M169.4 162C169.4 162 170.5 166.15 162.45 167.4" stroke="#263238" stroke-opacity="1.000000" stroke-width="4.000000" stroke-linejoin="round" stroke-linecap="round"/>
		<path id="&lt;Path&gt;" d="M164.85 151.95C164.85 151.95 158.2 149.05 154 158.5" stroke="#263238" stroke-opacity="1.000000" stroke-width="4.000000" stroke-linejoin="round" stroke-linecap="round"/>
		<path id="&lt;Path&gt;" d="M160 217.3C160 217.3 161.95 220.55 169.65 219.05C177.35 217.55 184.05 214.55 184.05 214.55" stroke="#263238" stroke-opacity="1.000000" stroke-width="2.000000" stroke-linejoin="round" stroke-linecap="round"/>
		<path id="&lt;Path&gt;" d="M68.9 202.65C68.9 202.65 51.4 206.15 39.5 215.05C27.65 223.95 20.25 247.95 23.5 264.9C26.75 281.79 34.2 294.54 29.75 299.6C25.3 304.65 16.95 311.75 18.15 325.4C19.35 339.05 36.84 349.15 31.2 355.95C25.55 362.75 18.45 373.15 26.45 384.75C34.45 396.3 46.05 395.7 46.05 398.95C46.05 402.25 37.75 401.65 39.8 404.3C41.9 406.95 51.95 403.4 57 401.35C62.05 399.25 75.69 393.05 79.25 377C82.85 361 76.9 355.65 79.25 350.9C81.65 346.15 95.3 340.55 94.7 317.7C94.1 294.85 89.95 266.65 78.4 250.05C66.8 233.45 65.9 212.95 73.94 207.35C73.94 207.35 73.35 199.75 68.9 202.65Z" fill="#263238" fill-opacity="1.000000" fill-rule="nonzero"/>
		<path id="&lt;Path&gt;" d="M39.5 215.05C27.65 223.95 20.25 247.95 23.5 264.9C26.75 281.79 34.2 294.54 29.75 299.6C25.3 304.65 16.95 311.75 18.15 325.4C19.35 339.05 36.84 349.15 31.2 355.95C25.55 362.75 18.45 373.15 26.45 384.75C34.45 396.3 46.05 395.7 46.05 398.95C46.05 402.25 37.75 401.65 39.8 404.3C41.9 406.95 51.95 403.4 57 401.35C62.05 399.25 75.69 393.05 79.25 377C82.85 361 76.9 355.65 79.25 350.9C81.65 346.15 95.3 340.55 94.7 317.7C94.1 294.85 89.95 266.65 78.4 250.05C66.8 233.45 65.9 212.95 73.94 207.35C73.94 207.35 73.35 199.75 68.9 202.65C68.9 202.65 51.4 206.15 39.5 215.05Z" stroke="#263238" stroke-opacity="1.000000" stroke-width="2.000000" stroke-linejoin="round"/>
		<path id="&lt;Path&gt;" d="M115.8 131.95C115.8 131.95 134.64 124.25 137.89 127.45C141.1 130.7 146.35 145.85 145.35 157.75C144.35 169.65 140.85 173.15 144.35 177.1C147.8 181.05 151.8 187.75 149.3 191.5C146.85 195.2 132.2 192.75 130.7 196.7C129.2 200.65 130.2 215.8 133.64 220.3C137.14 224.75 144.35 236.4 137.39 244.1C130.45 251.8 118.8 255 105.15 250.05C91.5 245.1 81.8 229.95 83.3 220.05C84.8 210.1 70.4 212.35 68.9 202.65C67.4 193 66.9 184.8 71.4 170.9C75.85 157 80.15 143.3 115.8 131.95Z" fill="#263238" fill-opacity="1.000000" fill-rule="nonzero"/>
		<path id="&lt;Path&gt;" d="M137.89 127.45C141.1 130.7 146.35 145.85 145.35 157.75C144.35 169.65 140.85 173.15 144.35 177.1C147.8 181.05 151.8 187.75 149.3 191.5C146.85 195.2 132.2 192.75 130.7 196.7C129.2 200.65 130.2 215.8 133.64 220.3C137.14 224.75 144.35 236.4 137.39 244.1C130.45 251.8 118.8 255 105.15 250.05C91.5 245.1 81.8 229.95 83.3 220.05C84.8 210.1 70.4 212.35 68.9 202.65C67.4 193 66.9 184.8 71.4 170.9C75.85 157 80.15 143.3 115.8 131.95C115.8 131.95 134.64 124.25 137.89 127.45Z" stroke="#263238" stroke-opacity="1.000000" stroke-width="2.000000" stroke-linejoin="round"/>
		<path id="&lt;Path&gt;" d="M69.4 316.25C71 322.45 71.55 328.7 70.25 335.15C64.75 362.05 32.5 347.05 41.8 335.15C51.05 323.2 58.1 333.35 58.1 333.35" stroke="#828282" stroke-opacity="1.000000" stroke-width="2.000000" stroke-linejoin="round" stroke-linecap="round"/>
		<path id="&lt;Path&gt;" d="M46 240C45.4 244.15 45.25 248.8 45.75 253.95C47.95 275.65 61.85 293.65 68 311.75" stroke="#828282" stroke-opacity="1.000000" stroke-width="2.000000" stroke-linejoin="round" stroke-linecap="round"/>
		<path id="&lt;Path&gt;" d="M63.4 210.7C63.4 210.7 53 216.9 48.05 231.45" stroke="#828282" stroke-opacity="1.000000" stroke-width="2.000000" stroke-linejoin="round" stroke-linecap="round"/>
		<path id="&lt;Path&gt;" d="M88.05 309.54C88.85 314.15 88.7 318.65 87.25 323.2" stroke="#828282" stroke-opacity="1.000000" stroke-width="2.000000" stroke-linejoin="round" stroke-linecap="round"/>
		<path id="&lt;Path&gt;" d="M65.15 216.45C65.15 216.45 51.05 239.85 65.15 264.54C73.5 279.15 81.69 290.9 85.8 301.65" stroke="#828282" stroke-opacity="1.000000" stroke-width="2.000000" stroke-linejoin="round" stroke-linecap="round"/>
		<path id="&lt;Path&gt;" d="M125.1 161.64C123.35 170.15 120.2 179.3 114.6 184.7C101.8 197.05 79.3 204.55 77.1 203.2" stroke="#828282" stroke-opacity="1.000000" stroke-width="2.000000" stroke-linejoin="round" stroke-linecap="round"/>
		<path id="&lt;Path&gt;" d="M127.4 140.55C127.4 140.55 127.4 146.5 126.35 154.25" stroke="#828282" stroke-opacity="1.000000" stroke-width="2.000000" stroke-linejoin="round" stroke-linecap="round"/>
		<path id="&lt;Path&gt;" d="M115.4 214.4C117.85 213.75 120.25 212.85 122.55 211.6" stroke="#828282" stroke-opacity="1.000000" stroke-width="2.000000" stroke-linejoin="round" stroke-linecap="round"/>
		<path id="&lt;Path&gt;" d="M84.15 212.45C84.15 212.45 95.25 216.45 107.55 215.65" stroke="#828282" stroke-opacity="1.000000" stroke-width="2.000000" stroke-linejoin="round" stroke-linecap="round"/>
		<path id="&lt;Path&gt;" d="M133.25 247.1C133.25 247.1 129.1 247.1 127.6 250.65C126.15 254.2 125.25 256.29 125.25 256.29C125.25 256.29 116.05 255.4 114.55 260.15C113.1 264.9 113.4 266.65 113.4 266.65C113.4 266.65 108.05 269.65 108.05 274.95C108.05 280.29 110.4 283 114.55 285.35C118.7 287.7 131.75 297.2 135.64 306.7C139.5 316.2 134.14 357.15 141.55 361.6C149 366.05 164.4 366.35 164.4 366.35C164.4 366.35 165 377 170.05 379.1C175.1 381.15 189.9 380.55 203.55 370.5C217.2 360.4 222.85 350.6 220.75 346.15C218.7 341.7 205.35 333.7 196.75 313.54C188.15 293.35 165 264 153.14 255.7C141.25 247.4 133.25 247.1 133.25 247.1Z" fill="#FFFFFF" fill-opacity="1.000000" fill-rule="nonzero"/>
		<path id="&lt;Path&gt;" d="M127.6 250.65C126.15 254.2 125.25 256.29 125.25 256.29C125.25 256.29 116.05 255.4 114.55 260.15C113.1 264.9 113.4 266.65 113.4 266.65C113.4 266.65 108.05 269.65 108.05 274.95C108.05 280.29 110.4 283 114.55 285.35C118.7 287.7 131.75 297.2 135.64 306.7C139.5 316.2 134.14 357.15 141.55 361.6C149 366.05 164.4 366.35 164.4 366.35C164.4 366.35 165 377 170.05 379.1C175.1 381.15 189.9 380.55 203.55 370.5C217.2 360.4 222.85 350.6 220.75 346.15C218.7 341.7 205.35 333.7 196.75 313.54C188.15 293.35 165 264 153.14 255.7C141.25 247.4 133.25 247.1 133.25 247.1C133.25 247.1 129.1 247.1 127.6 250.65Z" stroke="#263238" stroke-opacity="1.000000" stroke-width="2.000000" stroke-linejoin="round"/>
		<path id="&lt;Path&gt;" d="M164.4 366.35L163.39 357.95M165.37 366.21L165.39 366.23C165.45 366.78 165.07 367.27 164.51 367.34C163.96 367.4 163.47 367.02 163.4 366.46L163.42 366.44L165.37 366.21ZM162.42 358.08L162.4 358.06C162.34 357.51 162.72 357.02 163.28 356.95C163.83 356.89 164.32 357.27 164.39 357.83L164.37 357.85L162.42 358.08Z" fill="#FFFFFF" fill-opacity="1.000000" fill-rule="nonzero"/>
		<path id="&lt;Path&gt;" d="M164.4 366.35L163.39 357.95" stroke="#263238" stroke-opacity="1.000000" stroke-width="2.000000" stroke-linejoin="round" stroke-linecap="round"/>
		<path id="&lt;Path&gt;" d="M128.8 257.45C128.8 257.45 150.14 266.65 162.05 285.95" stroke="#263238" stroke-opacity="1.000000" stroke-width="2.000000" stroke-linejoin="round" stroke-linecap="round"/>
		<path id="&lt;Path&gt;" d="M139 283.85C140.39 285.95 141.8 288.29 143.05 291" stroke="#263238" stroke-opacity="1.000000" stroke-width="2.000000" stroke-linejoin="round" stroke-linecap="round"/>
		<path id="&lt;Path&gt;" d="M116.35 267.25C116.35 267.25 127.9 268.9 137.55 281.79" stroke="#263238" stroke-opacity="1.000000" stroke-width="2.000000" stroke-linejoin="round" stroke-linecap="round"/>
		<path id="&lt;Path&gt;" d="M141.55 361.6C141.55 361.6 138.3 355.65 148.7 355.05C159.05 354.45 164.1 358.6 168.85 360.1C173.6 361.6 192.3 363.05 203.55 352.7C203.55 352.7 196.75 342 192 326C187.25 309.95 184.85 293.65 175.7 280.9M142.39 361.11L142.42 361.12C142.69 361.61 142.52 362.2 142.02 362.47C141.53 362.74 140.94 362.57 140.67 362.07L140.67 362.05L142.39 361.11ZM174.91 281.48L174.88 281.48C174.56 281.02 174.66 280.41 175.11 280.08C175.57 279.76 176.18 279.86 176.51 280.31L176.5 280.34L174.91 281.48Z" fill="#FFFFFF" fill-opacity="1.000000" fill-rule="nonzero"/>
		<path id="&lt;Path&gt;" d="M141.55 361.6C141.55 361.6 138.3 355.65 148.7 355.05C159.05 354.45 164.1 358.6 168.85 360.1C173.6 361.6 192.3 363.05 203.55 352.7C203.55 352.7 196.75 342 192 326C187.25 309.95 184.85 293.65 175.7 280.9" stroke="#263238" stroke-opacity="1.000000" stroke-width="2.000000" stroke-linejoin="round" stroke-linecap="round"/>
		<path id="&lt;Path&gt;" d="M166.8 299.9C167.25 301.45 167.65 303.04 167.95 304.65" stroke="#263238" stroke-opacity="1.000000" stroke-width="2.000000" stroke-linejoin="round" stroke-linecap="round"/>
		<path id="&lt;Path&gt;" d="M163.2 289.5C163.2 289.5 164.4 292.29 165.7 296.2" stroke="#263238" stroke-opacity="1.000000" stroke-width="2.000000" stroke-linejoin="round" stroke-linecap="round"/>
		<path id="&lt;Path&gt;" d="M216.2 160.6C216.25 160.6 216.2 157.1 214.7 156.39C213.2 155.75 210.25 156.75 209.75 159.39C209.25 162.05 209.95 165.45 209.95 165.45C209.95 165.45 213.9 161.75 216.25 160.6L216.2 160.6Z" fill="#FFFFFF" fill-opacity="1.000000" fill-rule="nonzero"/>
		<path id="&lt;Path&gt;" d="M214.7 156.39C213.2 155.75 210.25 156.75 209.75 159.39C209.25 162.05 209.95 165.45 209.95 165.45C209.95 165.45 213.9 161.75 216.25 160.6L216.2 160.6C216.25 160.6 216.2 157.1 214.7 156.39Z" stroke="#263238" stroke-opacity="1.000000" stroke-width="2.000000" stroke-linejoin="round"/>
		<path id="&lt;Path&gt;" d="M240.45 155.45C240.45 155.45 239.95 153.39 237.7 152.85C235.45 152.3 233.2 153.89 232.75 155.39C232.35 156.85 233.05 158 235.45 158.55C237.85 159.1 240 158.6 240.5 157.7C241 156.8 240.45 155.45 240.45 155.45Z" fill="#FFFFFF" fill-opacity="1.000000" fill-rule="nonzero"/>
		<path id="&lt;Path&gt;" d="M237.7 152.85C235.45 152.3 233.2 153.89 232.75 155.39C232.35 156.85 233.05 158 235.45 158.55C237.85 159.1 240 158.6 240.5 157.7C241 156.8 240.45 155.45 240.45 155.45C240.45 155.45 239.95 153.39 237.7 152.85Z" stroke="#263238" stroke-opacity="1.000000" stroke-width="2.000000" stroke-linejoin="round"/>
		<path id="&lt;Path&gt;" d="M249.55 155.85C249.55 155.85 249.1 153.85 246.85 153.25C244.6 152.7 242.35 154.35 241.9 155.8C241.5 157.3 242.2 158.39 244.6 158.95C246.95 159.55 249.15 159.05 249.65 158.1C250.15 157.2 249.55 155.85 249.55 155.85Z" fill="#FFFFFF" fill-opacity="1.000000" fill-rule="nonzero"/>
		<path id="&lt;Path&gt;" d="M246.85 153.25C244.6 152.7 242.35 154.35 241.9 155.8C241.5 157.3 242.2 158.39 244.6 158.95C246.95 159.55 249.15 159.05 249.65 158.1C250.15 157.2 249.55 155.85 249.55 155.85C249.55 155.85 249.1 153.85 246.85 153.25Z" stroke="#263238" stroke-opacity="1.000000" stroke-width="2.000000" stroke-linejoin="round"/>
		<path id="&lt;Path&gt;" d="M264.35 154.95C264.35 154.95 264 153.64 262.25 153.35C260.5 153 258.75 154.05 258.45 154.95C258.1 155.89 258.65 156.6 260.5 156.89C262.4 157.25 264.04 156.89 264.45 156.35C264.79 155.75 264.35 154.95 264.35 154.95Z" fill="#FFFFFF" fill-opacity="1.000000" fill-rule="nonzero"/>
		<path id="&lt;Path&gt;" d="M262.25 153.35C260.5 153 258.75 154.05 258.45 154.95C258.1 155.89 258.65 156.6 260.5 156.89C262.4 157.25 264.04 156.89 264.45 156.35C264.79 155.75 264.35 154.95 264.35 154.95C264.35 154.95 264 153.64 262.25 153.35Z" stroke="#263238" stroke-opacity="1.000000" stroke-width="2.000000" stroke-linejoin="round"/>
		<path id="&lt;Path&gt;" d="M322.35 173.95L321.79 167.9C321.79 167.9 323.25 163.1 321.9 158.95C320.54 154.8 317.04 154.8 315.1 154.55C313.1 154.25 284.75 154 281.95 155.25C279.15 156.55 278.29 156.39 278.29 156.39L242.7 157.75L239.55 157.8C239.55 157.8 226.3 157.14 219.2 159.35C212.1 161.55 207.5 168.55 207.5 168.55L204.05 168.6L204.1 174.95L204.15 181.25L207.6 181.25C207.6 181.25 212.3 188.15 219.45 190.25C226.6 192.35 239.85 191.45 239.85 191.45L243 191.45L278.6 192.25C278.6 192.25 279.45 192.05 282.25 193.3C285.1 194.5 313.4 193.8 315.4 193.45C317.4 193.15 320.85 193.1 322.15 188.95C323.45 184.75 321.9 179.95 321.9 179.95L322.35 173.95Z" fill="#FFFFFF" fill-opacity="1.000000" fill-rule="nonzero"/>
		<path id="&lt;Path&gt;" d="M321.79 167.9C321.79 167.9 323.25 163.1 321.9 158.95C320.54 154.8 317.04 154.8 315.1 154.55C313.1 154.25 284.75 154 281.95 155.25C279.15 156.55 278.29 156.39 278.29 156.39L242.7 157.75L239.55 157.8C239.55 157.8 226.3 157.14 219.2 159.35C212.1 161.55 207.5 168.55 207.5 168.55L204.05 168.6L204.1 174.95L204.15 181.25L207.6 181.25C207.6 181.25 212.3 188.15 219.45 190.25C226.6 192.35 239.85 191.45 239.85 191.45L243 191.45L278.6 192.25C278.6 192.25 279.45 192.05 282.25 193.3C285.1 194.5 313.4 193.8 315.4 193.45C317.4 193.15 320.85 193.1 322.15 188.95C323.45 184.75 321.9 179.95 321.9 179.95L322.35 173.95L321.79 167.9Z" stroke="#1B2429" stroke-opacity="1.000000" stroke-width="2.000000" stroke-linejoin="round"/>
		<path id="&lt;Path&gt;" d="M322.35 173.95L321.79 167.9C321.79 167.9 323.25 163.1 321.9 158.95C320.54 154.8 317.04 154.8 315.1 154.55C314.9 154.5 314.54 154.5 314.04 154.45L205.5 176.2L204.1 177.05L204.15 181.25L207.6 181.25C207.6 181.25 212.3 188.15 219.45 190.25C226.6 192.35 239.85 191.45 239.85 191.45L243 191.45L278.6 192.25C278.6 192.25 279.45 192.05 282.25 193.3C285.1 194.5 313.4 193.8 315.4 193.45C317.4 193.15 320.85 193.1 322.15 188.95C323.45 184.75 321.9 179.95 321.9 179.95L322.35 173.95Z" fill="#62CDFA" fill-opacity="1.000000" fill-rule="nonzero"/>
		<path id="&lt;Path&gt;" d="M321.79 167.9C321.79 167.9 323.25 163.1 321.9 158.95C320.54 154.8 317.04 154.8 315.1 154.55C314.9 154.5 314.54 154.5 314.04 154.45L205.5 176.2L204.1 177.05L204.15 181.25L207.6 181.25C207.6 181.25 212.3 188.15 219.45 190.25C226.6 192.35 239.85 191.45 239.85 191.45L243 191.45L278.6 192.25C278.6 192.25 279.45 192.05 282.25 193.3C285.1 194.5 313.4 193.8 315.4 193.45C317.4 193.15 320.85 193.1 322.15 188.95C323.45 184.75 321.9 179.95 321.9 179.95L322.35 173.95L321.79 167.9Z" stroke="#263238" stroke-opacity="1.000000" stroke-width="2.000000" stroke-linejoin="round"/>
		<path id="&lt;Path&gt;" d="M201.8 181.85L204.45 181.8L204.35 167.9L201.7 167.95L201.8 181.85Z" fill="#263238" fill-opacity="1.000000" fill-rule="nonzero"/>
		<path id="&lt;Path&gt;" d="M204.45 181.8L204.35 167.9L201.7 167.95L201.8 181.85L204.45 181.8Z" stroke="#263238" stroke-opacity="1.000000" stroke-width="2.000000" stroke-linejoin="round"/>
		<path id="&lt;Path&gt;" d="M197.65 181.4L201.65 181.35L201.55 168.75L197.55 168.8L197.65 181.4Z" fill="#FFFFFF" fill-opacity="1.000000" fill-rule="nonzero"/>
		<path id="&lt;Path&gt;" d="M201.65 181.35L201.55 168.75L197.55 168.8L197.65 181.4L201.65 181.35Z" stroke="#263238" stroke-opacity="1.000000" stroke-width="2.000000" stroke-linejoin="round"/>
		<path id="&lt;Path&gt;" d="M248.15 228.15C244.05 226.85 236.75 217.55 233.25 212.6C229.8 207.6 229.1 199 229.1 194.85C229.1 190.7 234.4 184.6 234.4 184.6C234.4 184.6 236.1 178.6 239.55 180.8C243.05 182.95 242.35 190.9 241.55 193.55C240.7 196.2 240.05 196.5 240.55 197.35C241.05 198.15 245.2 198.65 251.65 203C258.1 207.3 257.1 215.05 257.1 215.05M248.42 227.21L248.45 227.19C248.98 227.36 249.27 227.91 249.1 228.45C248.93 228.98 248.38 229.27 247.84 229.1L247.83 229.07L248.42 227.21ZM258.07 215.15L258.09 215.17C258.01 215.73 257.52 216.11 256.97 216.04C256.41 215.97 256.03 215.47 256.1 214.92L256.13 214.9L258.07 215.15Z" fill="#FFFFFF" fill-opacity="1.000000" fill-rule="nonzero"/>
		<path id="&lt;Path&gt;" d="M248.15 228.15C244.05 226.85 236.75 217.55 233.25 212.6C229.8 207.6 229.1 199 229.1 194.85C229.1 190.7 234.4 184.6 234.4 184.6C234.4 184.6 236.1 178.6 239.55 180.8C243.05 182.95 242.35 190.9 241.55 193.55C240.7 196.2 240.05 196.5 240.55 197.35C241.05 198.15 245.2 198.65 251.65 203C258.1 207.3 257.1 215.05 257.1 215.05" stroke="#263238" stroke-opacity="1.000000" stroke-width="2.000000" stroke-linejoin="round" stroke-linecap="round"/>
		<path id="&lt;Path&gt;" d="M217.85 162.89C217.85 162.89 217.85 167.05 220.85 170.65C223.8 174.3 226.45 177.3 228.8 177.15" stroke="#263238" stroke-opacity="1.000000" stroke-width="2.000000" stroke-linejoin="round" stroke-linecap="round"/>
		<path id="&lt;Path&gt;" d="M232.75 160.25C232.75 160.25 235.4 169.5 233.45 173" stroke="#263238" stroke-opacity="1.000000" stroke-width="2.000000" stroke-linejoin="round" stroke-linecap="round"/>
		<path id="&lt;Path&gt;" d="M241.7 162.55C241.7 162.55 241.9 174.3 243.35 174C244.85 173.65 243.35 164.55 243.35 164.55" stroke="#263238" stroke-opacity="1.000000" stroke-width="2.000000" stroke-linejoin="round" stroke-linecap="round"/>
		<path id="&lt;Path&gt;" d="M250.35 158.89C250.35 158.89 252.65 164.7 252.65 168.85C252.65 173 252.8 175 254.65 175" stroke="#263238" stroke-opacity="1.000000" stroke-width="2.000000" stroke-linejoin="round" stroke-linecap="round"/>
		<path id="&lt;Path&gt;" d="M259.6 158.89C259.6 158.89 259.45 161.39 260.1 163.7C260.75 166.05 258.29 171 258.29 171" stroke="#263238" stroke-opacity="1.000000" stroke-width="2.000000" stroke-linejoin="round" stroke-linecap="round"/>
		<path id="&lt;Path&gt;" d="M266.25 158.1C266.25 158.1 267.54 169.5 266.04 174.5C264.54 179.45 265.4 185.9 265.4 185.9" stroke="#263238" stroke-opacity="1.000000" stroke-width="2.000000" stroke-linejoin="round" stroke-linecap="round"/>
		<path id="&lt;Path&gt;" d="M211.55 169.2C211.55 169.2 214.85 178.15 216.7 181.95C218.5 185.75 222.15 189.7 222.15 189.7" stroke="#263238" stroke-opacity="1.000000" stroke-width="2.000000" stroke-linejoin="round" stroke-linecap="round"/>
		<path id="&lt;Path&gt;" d="M317.5 310.25C319.95 310.85 322.54 311.2 325.35 311.2" stroke="#263238" stroke-opacity="1.000000" stroke-width="2.000000" stroke-linejoin="round" stroke-linecap="round"/>
		<path id="&lt;Path&gt;" d="M292.4 289.6C292.4 289.6 298.54 302.25 311.5 308.2" stroke="#263238" stroke-opacity="1.000000" stroke-width="2.000000" stroke-linejoin="round" stroke-linecap="round"/>
		<path id="&lt;Path&gt;" d="M141.1 195.2C141.1 195.2 131.45 190 125.5 195.2C119.55 200.45 130.45 211.1 139.39 213.85C148.3 216.55 151.55 212.85 151.8 209.35M141.54 194.32L141.57 194.31C142.06 194.58 142.24 195.18 141.98 195.67C141.71 196.16 141.11 196.34 140.62 196.08L140.61 196.05L141.54 194.32ZM150.82 209.3L150.8 209.27C150.84 208.72 151.31 208.31 151.87 208.35C152.42 208.39 152.83 208.86 152.79 209.42L152.77 209.43L150.82 209.3Z" fill="#FFFFFF" fill-opacity="1.000000" fill-rule="nonzero"/>
		<path id="&lt;Path&gt;" d="M141.1 195.2C141.1 195.2 131.45 190 125.5 195.2C119.55 200.45 130.45 211.1 139.39 213.85C148.3 216.55 151.55 212.85 151.8 209.35" stroke="#263238" stroke-opacity="1.000000" stroke-width="2.000000" stroke-linejoin="round" stroke-linecap="round"/>
		<path id="&lt;Path&gt;" d="M123.45 60C123.45 76.54 110.05 90 93.45 90C76.9 90 63.5 76.54 63.5 60C63.5 43.44 76.9 30.04 93.45 30.04C110.05 30.04 123.45 43.44 123.45 60Z" fill="#3898F3" fill-opacity="1.000000" fill-rule="nonzero"/>
		<path id="&lt;Path&gt;" d="M92.65 96.14L92.65 106.55" stroke="#3898F3" stroke-opacity="1.000000" stroke-width="2.000000"/>
		<path id="&lt;Path&gt;" d="M92.65 14.5L92.65 24.85" stroke="#3898F3" stroke-opacity="1.000000" stroke-width="2.000000"/>
		<path id="&lt;Path&gt;" d="M57 60.5L46.65 60.5" stroke="#3898F3" stroke-opacity="1.000000" stroke-width="2.000000"/>
		<path id="&lt;Path&gt;" d="M138.7 60.5L128.35 60.5" stroke="#3898F3" stroke-opacity="1.000000" stroke-width="2.000000"/>
		<path id="&lt;Path&gt;" d="M67.44 85.7L60.15 93.05" stroke="#3898F3" stroke-opacity="1.000000" stroke-width="2.000000"/>
		<path id="&lt;Path&gt;" d="M125.2 27.95L117.9 35.3" stroke="#3898F3" stroke-opacity="1.000000" stroke-width="2.000000"/>
		<path id="&lt;Path&gt;" d="M117.9 85.7L125.2 93.05" stroke="#3898F3" stroke-opacity="1.000000" stroke-width="2.000000"/>
		<path id="&lt;Path&gt;" d="M60.15 27.95L67.44 35.3" stroke="#3898F3" stroke-opacity="1.000000" stroke-width="2.000000"/>
	</g>
</svg>
