<svg width="667.590820" height="259.409058" viewBox="0 0 667.591 259.409" fill="none" xmlns="http://www.w3.org/2000/svg" xmlns:xlink="http://www.w3.org/1999/xlink">
	<desc>
			Created with Pixso.
	</desc>
	<defs/>
	<path id="Vector 1" d="M120.31 5.48C181.79 -21.95 245.93 63.87 319.36 36.89C392.79 9.9 551.58 -9.12 604.22 56.35C646.33 108.73 582.55 213.54 545.39 259.4L0 169.6C1.03 126.98 3.8 40.78 6.63 36.89C9.46 32.99 83.6 14.32 120.31 5.48Z" fill="#5DCCFC" fill-opacity="0.410000" fill-rule="evenodd"/>
	<path id="Vector 2" d="M210.5 21.99C262.16 -1.06 353.27 51.82 416.55 34C480.5 16 611.7 -4.67 655.94 50.36C691.32 94.39 637.72 182.49 606.5 221.04L148.18 145.56C149.04 109.74 151.37 37.28 153.75 34C156.13 30.73 179.64 29.43 210.5 21.99Z" fill="#5DCCFC" fill-opacity="0.410000" fill-rule="evenodd"/>
</svg>
