<svg width="23.076904" height="24.000000" viewBox="0 0 23.0769 24" fill="none" xmlns="http://www.w3.org/2000/svg" xmlns:xlink="http://www.w3.org/1999/xlink">
	<desc>
			Created with Pixso.
	</desc>
	<defs>
		<filter id="filter_1_1636_dd" x="116.115234" y="-29.000000" width="81.846191" height="84.000000" filterUnits="userSpaceOnUse" color-interpolation-filters="sRGB">
			<feFlood flood-opacity="0" result="BackgroundImageFix"/>
			<feColorMatrix in="SourceAlpha" type="matrix" values="0 0 0 0 0 0 0 0 0 0 0 0 0 0 0 0 0 0 127 0" result="hardAlpha"/>
			<feOffset dx="0" dy="2"/>
			<feGaussianBlur stdDeviation="4.66667"/>
			<feComposite in2="hardAlpha" operator="out" k2="-1" k3="1"/>
			<feColorMatrix type="matrix" values="0 0 0 0 0 0 0 0 0 0 0 0 0 0 0 0 0 0 0.09 0"/>
			<feBlend mode="normal" in2="BackgroundImageFix" result="effect_dropShadow_1"/>
			<feBlend mode="normal" in="SourceGraphic" in2="effect_dropShadow_1" result="shape"/>
		</filter>
		<clipPath id="clip1_1641">
			<rect id="settings" rx="0.000000" width="22.076923" height="23.000000" transform="translate(219.615234 0.500000)" fill="white" fill-opacity="0"/>
		</clipPath>
		<clipPath id="clip1_1640">
			<rect id="search 1" rx="0.000000" width="23.000000" height="23.000000" transform="translate(219.615234 0.500000)" fill="white" fill-opacity="0"/>
		</clipPath>
		<clipPath id="clip1_1644">
			<rect id="home 1" width="23.076923" height="24.000000" fill="white" fill-opacity="0"/>
		</clipPath>
	</defs>
	<rect id="home 1" width="23.076923" height="24.000000" fill="#FFFFFF" fill-opacity="0"/>
	<g clip-path="url(#clip1_1644)">
		<g filter="url(#filter_1_1636_dd)">
			<rect id="Rectangle 24" x="130.115234" y="-17.000000" rx="26.923077" width="53.846153" height="56.000000" fill="#FFFFFF" fill-opacity="1.000000"/>
		</g>
		<rect id="search 1" rx="0.000000" width="23.000000" height="23.000000" transform="translate(219.615234 0.500000)" fill="#FFFFFF" fill-opacity="0"/>
		<g clip-path="url(#clip1_1640)">
			<rect id="settings" rx="0.000000" width="22.076923" height="23.000000" transform="translate(219.615234 0.500000)" fill="#FFFFFF" fill-opacity="0"/>
			<g clip-path="url(#clip1_1641)">
				<path id="Vector" d="M230.65 15C229.06 15 227.76 13.65 227.76 12C227.76 10.34 229.06 9 230.65 9C232.24 9 233.53 10.34 233.53 12C233.53 13.65 232.24 15 230.65 15Z" stroke="#000000" stroke-opacity="1.000000" stroke-width="2.000000" stroke-linejoin="round"/>
				<path id="Vector" d="M237.65 15.96C237.71 16.28 237.86 16.58 238.08 16.82L238.14 16.87C238.32 17.06 238.46 17.28 238.56 17.52C238.65 17.77 238.7 18.03 238.7 18.29C238.7 18.55 238.65 18.81 238.56 19.06C238.46 19.3 238.32 19.52 238.14 19.7C237.96 19.89 237.75 20.04 237.52 20.14C237.28 20.24 237.03 20.29 236.78 20.29C236.53 20.29 236.28 20.24 236.04 20.14C235.81 20.04 235.6 19.89 235.42 19.7L235.36 19.65C235.13 19.41 234.85 19.26 234.53 19.2C234.22 19.14 233.9 19.18 233.61 19.32C233.33 19.44 233.08 19.65 232.91 19.92C232.74 20.19 232.65 20.5 232.65 20.83L232.65 21C232.65 21.53 232.45 22.03 232.09 22.41C231.73 22.78 231.24 23 230.73 23C230.22 23 229.73 22.78 229.37 22.41C229.01 22.03 228.8 21.53 228.8 21L228.8 20.91C228.8 20.57 228.69 20.25 228.51 19.98C228.32 19.71 228.06 19.51 227.76 19.4C227.47 19.26 227.15 19.22 226.84 19.28C226.53 19.34 226.24 19.49 226.01 19.73L225.96 19.79C225.78 19.97 225.57 20.12 225.33 20.22C225.1 20.32 224.85 20.37 224.6 20.37C224.34 20.37 224.09 20.32 223.86 20.22C223.63 20.12 223.41 19.97 223.24 19.79C223.06 19.6 222.91 19.38 222.82 19.14C222.72 18.89 222.67 18.63 222.67 18.37C222.67 18.11 222.72 17.85 222.82 17.6C222.91 17.36 223.06 17.14 223.24 16.95L223.29 16.9C223.52 16.66 223.66 16.36 223.72 16.04C223.78 15.71 223.74 15.38 223.61 15.08C223.49 14.78 223.29 14.53 223.03 14.35C222.77 14.17 222.47 14.08 222.16 14.08L222 14.08C221.49 14.08 221 13.86 220.64 13.49C220.27 13.11 220.07 12.61 220.07 12.08C220.07 11.54 220.27 11.04 220.64 10.66C221 10.29 221.49 10.08 222 10.08L222.08 10.08C222.4 10.07 222.71 9.96 222.97 9.77C223.23 9.57 223.42 9.31 223.53 9C223.66 8.69 223.7 8.36 223.64 8.03C223.59 7.71 223.44 7.41 223.22 7.17L223.16 7.12C222.98 6.93 222.84 6.71 222.74 6.47C222.64 6.22 222.59 5.96 222.59 5.7C222.59 5.44 222.64 5.18 222.74 4.93C222.84 4.69 222.98 4.47 223.16 4.29C223.34 4.1 223.55 3.95 223.78 3.85C224.02 3.75 224.27 3.7 224.52 3.7C224.77 3.7 225.02 3.75 225.26 3.85C225.49 3.95 225.7 4.1 225.88 4.29L225.94 4.35C226.16 4.58 226.45 4.73 226.76 4.79C227.08 4.85 227.4 4.81 227.69 4.67L227.76 4.67C228.05 4.55 228.29 4.34 228.46 4.07C228.63 3.8 228.72 3.49 228.73 3.17L228.73 3C228.73 2.46 228.93 1.96 229.29 1.58C229.65 1.21 230.14 1 230.65 1C231.16 1 231.65 1.21 232.01 1.58C232.37 1.96 232.57 2.46 232.57 3L232.57 3.09C232.57 3.41 232.67 3.72 232.84 3.99C233.01 4.26 233.25 4.47 233.53 4.6C233.82 4.73 234.15 4.77 234.46 4.71C234.77 4.65 235.06 4.5 235.28 4.26L235.34 4.2C235.52 4.02 235.73 3.87 235.97 3.77C236.2 3.67 236.45 3.62 236.7 3.62C236.95 3.62 237.2 3.67 237.44 3.77C237.67 3.87 237.88 4.02 238.06 4.2C238.24 4.39 238.38 4.61 238.48 4.85C238.58 5.1 238.63 5.36 238.63 5.62C238.63 5.88 238.58 6.14 238.48 6.39C238.38 6.63 238.24 6.85 238.06 7.04L238 7.1C237.78 7.33 237.63 7.63 237.58 7.95C237.52 8.28 237.56 8.61 237.69 8.92L237.69 9C237.81 9.29 238.01 9.54 238.27 9.72C238.53 9.9 238.83 9.99 239.14 10L239.3 10C239.81 10 240.3 10.21 240.66 10.58C241.02 10.96 241.23 11.46 241.23 12C241.23 12.53 241.02 13.03 240.66 13.41C240.3 13.78 239.81 14 239.3 14L239.22 14C238.91 14 238.6 14.09 238.35 14.27C238.09 14.45 237.89 14.7 237.76 15C237.64 15.3 237.6 15.63 237.65 15.96Z" stroke="#000000" stroke-opacity="1.000000" stroke-width="2.000000" stroke-linejoin="round"/>
			</g>
		</g>
		<path id="Vector" d="M11.53 2L20.19 9L20.19 20C20.19 20.53 19.98 21.03 19.62 21.41C19.26 21.78 18.77 22 18.26 22L4.8 22C4.29 22 3.8 21.78 3.44 21.41C3.08 21.03 2.88 20.53 2.88 20L2.88 9L11.53 2Z" stroke="#000000" stroke-opacity="1.000000" stroke-width="2.000000" stroke-linejoin="round"/>
		<path id="Vector" d="M8.65 22L8.65 12L14.42 12L14.42 22" stroke="#000000" stroke-opacity="1.000000" stroke-width="2.000000" stroke-linejoin="round" stroke-linecap="round"/>
	</g>
</svg>
