<svg width="18.125000" height="18.124954" viewBox="0 0 18.125 18.125" fill="none" xmlns="http://www.w3.org/2000/svg" xmlns:xlink="http://www.w3.org/1999/xlink">
	<desc>
			Created with Pixso.
	</desc>
	<defs/>
	<path id="Vector" d="M7.5 0C3.35 0 0 3.35 0 7.5C0 11.64 3.35 15 7.5 15C11.64 15 15 11.64 15 7.5C15 3.35 11.64 0 7.5 0ZM6.11 3.16C6.45 3.11 6.68 2.79 6.63 2.45C6.57 2.11 6.25 1.87 5.91 1.93C3.86 2.25 2.25 3.86 1.93 5.91C1.87 6.25 2.11 6.57 2.45 6.63C2.79 6.68 3.11 6.45 3.16 6.11C3.4 4.59 4.59 3.4 6.11 3.16ZM14.6 13.72C14.36 13.48 13.96 13.48 13.72 13.72C13.48 13.96 13.48 14.36 13.72 14.6L17.05 17.94C17.3 18.18 17.69 18.18 17.94 17.94C18.18 17.69 18.18 17.3 17.94 17.05L14.6 13.72Z" fill="#62CDFA" fill-opacity="1.000000" fill-rule="evenodd"/>
</svg>
