<svg width="24.000000" height="24.000000" viewBox="0 0 24 24" fill="none" xmlns="http://www.w3.org/2000/svg" xmlns:xlink="http://www.w3.org/1999/xlink">
	<desc>
			Created with Pixso.
	</desc>
	<defs>
		<clipPath id="clip1_1641">
			<rect id="settings" rx="0.000000" width="22.076923" height="23.000000" transform="translate(0.500000 0.500000)" fill="white" fill-opacity="0"/>
		</clipPath>
		<clipPath id="clip1_1640">
			<rect id="search 1" rx="0.000000" width="23.000000" height="23.000000" transform="translate(0.500000 0.500000)" fill="white" fill-opacity="0"/>
		</clipPath>
	</defs>
	<rect id="search 1" rx="0.000000" width="23.000000" height="23.000000" transform="translate(0.500000 0.500000)" fill="#FFFFFF" fill-opacity="0"/>
	<g clip-path="url(#clip1_1640)">
		<rect id="settings" rx="0.000000" width="22.076923" height="23.000000" transform="translate(0.500000 0.500000)" fill="#FFFFFF" fill-opacity="0"/>
		<g clip-path="url(#clip1_1641)">
			<path id="Vector" d="M11.53 15C9.94 15 8.65 13.65 8.65 12C8.65 10.34 9.94 9 11.53 9C13.13 9 14.42 10.34 14.42 12C14.42 13.65 13.13 15 11.53 15Z" stroke="#000000" stroke-opacity="1.000000" stroke-width="2.000000" stroke-linejoin="round"/>
			<path id="Vector" d="M18.54 15.96C18.6 16.28 18.74 16.58 18.97 16.82L19.02 16.87C19.2 17.06 19.34 17.28 19.44 17.52C19.54 17.77 19.59 18.03 19.59 18.29C19.59 18.55 19.54 18.81 19.44 19.06C19.34 19.3 19.2 19.52 19.02 19.7C18.85 19.89 18.63 20.04 18.4 20.14C18.17 20.24 17.92 20.29 17.66 20.29C17.41 20.29 17.16 20.24 16.93 20.14C16.69 20.04 16.48 19.89 16.3 19.7L16.25 19.65C16.02 19.41 15.73 19.26 15.42 19.2C15.11 19.14 14.78 19.18 14.5 19.32C14.21 19.44 13.97 19.65 13.8 19.92C13.63 20.19 13.53 20.5 13.53 20.83L13.53 21C13.53 21.53 13.33 22.03 12.97 22.41C12.61 22.78 12.12 23 11.61 23C11.1 23 10.61 22.78 10.25 22.41C9.89 22.03 9.69 21.53 9.69 21L9.69 20.91C9.68 20.57 9.58 20.25 9.39 19.98C9.21 19.71 8.95 19.51 8.65 19.4C8.36 19.26 8.04 19.22 7.72 19.28C7.41 19.34 7.13 19.49 6.9 19.73L6.84 19.79C6.66 19.97 6.45 20.12 6.22 20.22C5.98 20.32 5.73 20.37 5.48 20.37C5.23 20.37 4.98 20.32 4.74 20.22C4.51 20.12 4.3 19.97 4.12 19.79C3.94 19.6 3.8 19.38 3.7 19.14C3.61 18.89 3.56 18.63 3.56 18.37C3.56 18.11 3.61 17.85 3.7 17.6C3.8 17.36 3.94 17.14 4.12 16.95L4.18 16.9C4.4 16.66 4.55 16.36 4.6 16.04C4.66 15.71 4.62 15.38 4.5 15.08C4.37 14.78 4.17 14.53 3.91 14.35C3.65 14.17 3.35 14.08 3.04 14.08L2.88 14.08C2.37 14.08 1.88 13.86 1.52 13.49C1.16 13.11 0.96 12.61 0.96 12.08C0.96 11.54 1.16 11.04 1.52 10.66C1.88 10.29 2.37 10.08 2.88 10.08L2.97 10.08C3.28 10.07 3.59 9.96 3.85 9.77C4.11 9.57 4.31 9.31 4.42 9C4.55 8.69 4.58 8.36 4.53 8.03C4.47 7.71 4.32 7.41 4.1 7.17L4.04 7.12C3.86 6.93 3.72 6.71 3.63 6.47C3.53 6.22 3.48 5.96 3.48 5.7C3.48 5.44 3.53 5.18 3.63 4.93C3.72 4.69 3.86 4.47 4.04 4.29C4.22 4.1 4.43 3.95 4.67 3.85C4.9 3.75 5.15 3.7 5.4 3.7C5.66 3.7 5.91 3.75 6.14 3.85C6.37 3.95 6.59 4.1 6.76 4.29L6.82 4.35C7.05 4.58 7.34 4.73 7.65 4.79C7.96 4.85 8.28 4.81 8.57 4.67L8.65 4.67C8.93 4.55 9.18 4.34 9.35 4.07C9.52 3.8 9.61 3.49 9.61 3.17L9.61 3C9.61 2.46 9.81 1.96 10.17 1.58C10.53 1.21 11.02 1 11.53 1C12.04 1 12.53 1.21 12.89 1.58C13.25 1.96 13.46 2.46 13.46 3L13.46 3.09C13.46 3.41 13.55 3.72 13.72 3.99C13.89 4.26 14.13 4.47 14.42 4.6C14.71 4.73 15.03 4.77 15.34 4.71C15.65 4.65 15.94 4.5 16.17 4.26L16.23 4.2C16.4 4.02 16.62 3.87 16.85 3.77C17.08 3.67 17.33 3.62 17.59 3.62C17.84 3.62 18.09 3.67 18.32 3.77C18.56 3.87 18.77 4.02 18.95 4.2C19.13 4.39 19.27 4.61 19.36 4.85C19.46 5.1 19.51 5.36 19.51 5.62C19.51 5.88 19.46 6.14 19.36 6.39C19.27 6.63 19.13 6.85 18.95 7.04L18.89 7.1C18.67 7.33 18.52 7.63 18.46 7.95C18.41 8.28 18.44 8.61 18.57 8.92L18.57 9C18.69 9.29 18.9 9.54 19.15 9.72C19.41 9.9 19.71 9.99 20.02 10L20.19 10C20.7 10 21.19 10.21 21.55 10.58C21.91 10.96 22.11 11.46 22.11 12C22.11 12.53 21.91 13.03 21.55 13.41C21.19 13.78 20.7 14 20.19 14L20.1 14C19.79 14 19.49 14.09 19.23 14.27C18.97 14.45 18.77 14.7 18.65 15C18.52 15.3 18.48 15.63 18.54 15.96Z" stroke="#000000" stroke-opacity="1.000000" stroke-width="2.000000" stroke-linejoin="round"/>
		</g>
	</g>
</svg>
