<svg width="162.962967" height="162.963379" viewBox="0 0 162.963 162.963" fill="none" xmlns="http://www.w3.org/2000/svg" xmlns:xlink="http://www.w3.org/1999/xlink">
	<desc>
			Created with Pixso.
	</desc>
	<defs>
		<filter id="filter_1_326_dd" x="0.000000" y="0.000000" width="162.962967" height="162.963379" filterUnits="userSpaceOnUse" color-interpolation-filters="sRGB">
			<feFlood flood-opacity="0" result="BackgroundImageFix"/>
			<feColorMatrix in="SourceAlpha" type="matrix" values="0 0 0 0 0 0 0 0 0 0 0 0 0 0 0 0 0 0 127 0" result="hardAlpha"/>
			<feOffset dx="8.14815" dy="12.2222"/>
			<feGaussianBlur stdDeviation="10.1852"/>
			<feComposite in2="hardAlpha" operator="out" k2="-1" k3="1"/>
			<feColorMatrix type="matrix" values="0 0 0 0 0.36471 0 0 0 0 0.8 0 0 0 0 0.98824 0 0 0 0.2 0"/>
			<feBlend mode="normal" in2="BackgroundImageFix" result="effect_dropShadow_1"/>
			<feBlend mode="normal" in="SourceGraphic" in2="effect_dropShadow_1" result="shape"/>
		</filter>
		<clipPath id="clip1_327">
			<rect id="cup-of-water-drop-coffee-tea-svgrepo-com 1" rx="-0.500000" width="59.000000" height="59.000000" transform="translate(43.833191 39.944824)" fill="white" fill-opacity="0"/>
		</clipPath>
		<clipPath id="clip1_326">
			<rect id="Frame 33322" rx="30.046297" width="100.833336" height="100.833336" transform="translate(22.916670 18.842756)" fill="white" fill-opacity="0"/>
		</clipPath>
	</defs>
	<g filter="url(#filter_1_326_dd)">
		<rect id="Frame 33322" rx="30.046297" width="100.833336" height="100.833336" transform="translate(22.916670 18.842756)" fill="#0C8AE4" fill-opacity="1.000000"/>
		<g clip-path="url(#clip1_326)">
			<rect id="cup-of-water-drop-coffee-tea-svgrepo-com 1" rx="-0.500000" width="59.000000" height="59.000000" transform="translate(43.833191 39.944824)" fill="#FFFFFF" fill-opacity="0"/>
			<g clip-path="url(#clip1_327)">
				<path id="Vector" d="M93.95 43.3C93.98 43.03 93.89 42.77 93.72 42.57C93.54 42.37 93.28 42.25 93.02 42.25L53.64 42.25C53.37 42.25 53.12 42.37 52.94 42.57C52.76 42.77 52.68 43.03 52.71 43.3L58.84 95.8C58.89 96.27 59.3 96.63 59.77 96.63L86.89 96.63C87.36 96.63 87.76 96.27 87.82 95.8L93.95 43.3ZM54.69 44.13L60.6 94.75L86.05 94.75L91.96 44.13L54.69 44.13Z" fill="#FFFFFF" fill-opacity="1.000000" fill-rule="evenodd"/>
				<path id="Vector" d="M90.76 66.83C88.42 64.96 85.69 62.88 82.7 62.88C81.67 62.88 80.9 63.62 80.3 64.66C80 65.18 79.73 65.76 79.41 66.21C79.26 66.41 79.13 66.63 78.9 66.63C78.55 66.63 78.25 66.46 77.97 66.24C77.56 65.92 77.19 65.49 76.81 65.07C75.79 63.92 74.7 62.88 73.33 62.88C72.3 62.88 71.53 63.63 70.94 64.67C70.65 65.19 70.39 65.76 70.07 66.21C69.93 66.42 69.81 66.63 69.58 66.63C69.22 66.63 68.92 66.46 68.64 66.24C68.22 65.92 67.85 65.49 67.46 65.06C66.43 63.92 65.33 62.88 63.95 62.88C62.92 62.88 62.16 63.63 61.56 64.67C61.27 65.19 61.01 65.76 60.69 66.21C60.55 66.42 60.43 66.63 60.2 66.63C59.59 66.63 59.12 66.19 58.7 65.68C58.13 64.99 57.67 64.11 57.28 63.38C57.04 62.92 56.47 62.74 56.01 62.99C55.56 63.23 55.38 63.8 55.62 64.25C56.16 65.27 56.84 66.52 57.7 67.36C58.41 68.06 59.25 68.5 60.2 68.5C61.23 68.5 62 67.75 62.59 66.71C62.88 66.19 63.15 65.62 63.46 65.17C63.61 64.96 63.72 64.75 63.95 64.75C64.31 64.75 64.61 64.92 64.89 65.14C65.31 65.46 65.69 65.89 66.07 66.32C67.1 67.46 68.2 68.5 69.58 68.5C70.61 68.5 71.37 67.75 71.97 66.71C72.26 66.19 72.52 65.62 72.84 65.17C72.98 64.96 73.1 64.75 73.33 64.75C73.68 64.75 73.97 64.92 74.25 65.14C74.66 65.46 75.03 65.89 75.41 66.31C76.43 67.46 77.52 68.5 78.9 68.5C79.93 68.5 80.7 67.76 81.3 66.72C81.6 66.2 81.87 65.62 82.19 65.17C82.34 64.97 82.47 64.75 82.7 64.75C85.28 64.75 87.57 66.68 89.58 68.3C89.99 68.62 90.58 68.56 90.9 68.15C91.23 67.75 91.16 67.16 90.76 66.83Z" fill="#FFFFFF" fill-opacity="1.000000" fill-rule="evenodd"/>
				<path id="Vector" d="M65.83 71.38C63.24 71.38 61.14 73.48 61.14 76.07C61.14 78.66 63.24 80.76 65.83 80.76C68.42 80.76 70.52 78.66 70.52 76.07C70.52 73.48 68.42 71.38 65.83 71.38ZM65.83 73.26C67.38 73.26 68.64 74.51 68.64 76.07C68.64 77.62 67.38 78.88 65.83 78.88C64.28 78.88 63.02 77.62 63.02 76.07C63.02 74.51 64.28 73.26 65.83 73.26Z" fill="#FFFFFF" fill-opacity="1.000000" fill-rule="evenodd"/>
				<path id="Vector" d="M79.9 69.81C78.51 69.81 77.39 70.94 77.39 72.32C77.39 73.7 78.51 74.82 79.9 74.82C81.28 74.82 82.4 73.7 82.4 72.32C82.4 70.94 81.28 69.81 79.9 69.81ZM79.9 71.69C80.24 71.69 80.53 71.97 80.53 72.32C80.53 72.67 80.24 72.95 79.9 72.95C79.55 72.95 79.27 72.67 79.27 72.32C79.27 71.97 79.55 71.69 79.9 71.69Z" fill="#FFFFFF" fill-opacity="1.000000" fill-rule="evenodd"/>
				<path id="Vector" d="M77.08 78.2C73.63 78.2 70.83 80.99 70.83 84.44C70.83 87.89 73.63 90.68 77.08 90.68C80.52 90.68 83.32 87.89 83.32 84.44C83.32 80.99 80.52 78.2 77.08 78.2ZM77.08 80.07C79.49 80.07 81.45 82.03 81.45 84.44C81.45 86.85 79.49 88.81 77.08 88.81C74.67 88.81 72.71 86.85 72.71 84.44C72.71 82.03 74.67 80.07 77.08 80.07Z" fill="#FFFFFF" fill-opacity="1.000000" fill-rule="evenodd"/>
			</g>
		</g>
	</g>
</svg>
