<!-- <svg width="266.396790" height="288.006348" viewBox="0 0 266.397 288.006" fill="none" xmlns="http://www.w3.org/2000/svg" xmlns:xlink="http://www.w3.org/1999/xlink">
	<desc>
			Created with Pixso.
	</desc>
	<defs>
		<filter id="filter_2_3773_dd" x="46.355408" y="0.000000" width="220.041382" height="223.256836" filterUnits="userSpaceOnUse" color-interpolation-filters="sRGB">
			<feFlood flood-opacity="0" result="BackgroundImageFix"/>
			<feBlend mode="normal" in="SourceGraphic" in2="BackgroundImageFix" result="shape"/>
			<feGaussianBlur stdDeviation="33.3333" result="effect_layerBlur_1"/>
		</filter>
		<filter id="filter_2_3774_dd" x="134.980896" y="92.071777" width="42.283752" height="38.735840" filterUnits="userSpaceOnUse" color-interpolation-filters="sRGB">
			<feFlood flood-opacity="0" result="BackgroundImageFix"/>
			<feBlend mode="normal" in="SourceGraphic" in2="BackgroundImageFix" result="shape"/>
			<feGaussianBlur stdDeviation="3.33333" result="effect_layerBlur_1"/>
		</filter>
		<filter id="filter_2_3778_dd" x="90.743225" y="53.215820" width="121.759216" height="121.759277" filterUnits="userSpaceOnUse" color-interpolation-filters="sRGB">
			<feFlood flood-opacity="0" result="BackgroundImageFix"/>
			<feBlend mode="normal" in="SourceGraphic" in2="BackgroundImageFix" result="shape"/>
			<feGaussianBlur stdDeviation="16.6667" result="effect_layerBlur_1"/>
		</filter>
		<filter id="filter_2_3781_dd" x="0.000000" y="26.793457" width="250.517395" height="261.212891" filterUnits="userSpaceOnUse" color-interpolation-filters="sRGB">
			<feFlood flood-opacity="0" result="BackgroundImageFix"/>
			<feBlend mode="normal" in="SourceGraphic" in2="BackgroundImageFix" result="shape"/>
			<feGaussianBlur stdDeviation="33.3333" result="effect_layerBlur_1"/>
		</filter>
		<filter id="filter_2_3782_dd" x="86.535461" y="124.601562" width="76.168518" height="67.229492" filterUnits="userSpaceOnUse" color-interpolation-filters="sRGB">
			<feFlood flood-opacity="0" result="BackgroundImageFix"/>
			<feBlend mode="normal" in="SourceGraphic" in2="BackgroundImageFix" result="shape"/>
			<feGaussianBlur stdDeviation="3.33333" result="effect_layerBlur_1"/>
		</filter>
		<filter id="filter_2_3786_dd" x="35.854919" y="87.488770" width="154.847473" height="154.847656" filterUnits="userSpaceOnUse" color-interpolation-filters="sRGB">
			<feFlood flood-opacity="0" result="BackgroundImageFix"/>
			<feBlend mode="normal" in="SourceGraphic" in2="BackgroundImageFix" result="shape"/>
			<feGaussianBlur stdDeviation="16.6667" result="effect_layerBlur_1"/>
		</filter>
		<radialGradient gradientTransform="translate(156.433 113.294) rotate(-46.0086) scale(23.0017 18.4753)" cx="0.000000" cy="0.000000" r="1.000000" id="paint_radial_2_3772_0" gradientUnits="userSpaceOnUse">
			<stop offset="0.109324" stop-color="#3CC7F5"/>
			<stop offset="1.000000" stop-color="#5686F5"/>
		</radialGradient>
		<radialGradient gradientTransform="translate(156.376 116.639) rotate(-46.025) scale(20.1325 16.1704)" cx="0.000000" cy="0.000000" r="1.000000" id="paint_radial_2_3773_0" gradientUnits="userSpaceOnUse">
			<stop offset="0.109324" stop-color="#3CC7F5"/>
			<stop offset="1.000000" stop-color="#5686F5"/>
		</radialGradient>
		<radialGradient gradientTransform="translate(156.433 113.25) rotate(-46.0063) scale(23.0012 18.4749)" cx="0.000000" cy="0.000000" r="1.000000" id="paint_radial_2_3774_0" gradientUnits="userSpaceOnUse">
			<stop offset="0.109324" stop-color="#3CC7F5"/>
			<stop offset="1.000000" stop-color="#5686F5"/>
		</radialGradient>
		<radialGradient gradientTransform="translate(160.211 103.216) rotate(51.5592) scale(11.6971 2.64788)" cx="0.000000" cy="0.000000" r="1.000000" id="paint_radial_2_3777_0" gradientUnits="userSpaceOnUse">
			<stop stop-color="#FFFFFF"/>
			<stop offset="0.601048" stop-color="#BDDBF1" stop-opacity="0.278431"/>
			<stop offset="1.000000" stop-color="#5686F5" stop-opacity="0.000000"/>
		</radialGradient>
		<radialGradient gradientTransform="translate(151.623 114.095) rotate(50.1427) scale(8.13068 8.08193)" cx="0.000000" cy="0.000000" r="1.000000" id="paint_radial_2_3778_0" gradientUnits="userSpaceOnUse">
			<stop stop-color="#FFFFFF"/>
			<stop offset="0.601048" stop-color="#BDDBF1" stop-opacity="0.278431"/>
			<stop offset="1.000000" stop-color="#5686F5" stop-opacity="0.000000"/>
		</radialGradient>
		<radialGradient gradientTransform="translate(125.402 162.892) rotate(-46.0086) scale(57.9794 46.5698)" cx="0.000000" cy="0.000000" r="1.000000" id="paint_radial_2_3780_0" gradientUnits="userSpaceOnUse">
			<stop offset="0.109324" stop-color="#3CC7F5"/>
			<stop offset="1.000000" stop-color="#5686F5"/>
		</radialGradient>
		<radialGradient gradientTransform="translate(125.259 171.326) rotate(-46.025) scale(50.747 40.7598)" cx="0.000000" cy="0.000000" r="1.000000" id="paint_radial_2_3781_0" gradientUnits="userSpaceOnUse">
			<stop offset="0.109324" stop-color="#3CC7F5"/>
			<stop offset="1.000000" stop-color="#5686F5"/>
		</radialGradient>
		<radialGradient gradientTransform="translate(125.403 162.779) rotate(-46.0083) scale(57.9791 46.5694)" cx="0.000000" cy="0.000000" r="1.000000" id="paint_radial_2_3782_0" gradientUnits="userSpaceOnUse">
			<stop offset="0.109324" stop-color="#3CC7F5"/>
			<stop offset="1.000000" stop-color="#5686F5"/>
		</radialGradient>
		<radialGradient gradientTransform="translate(134.929 137.489) rotate(51.5592) scale(29.4844 6.67442)" cx="0.000000" cy="0.000000" r="1.000000" id="paint_radial_2_3785_0" gradientUnits="userSpaceOnUse">
			<stop stop-color="#FFFFFF"/>
			<stop offset="0.601048" stop-color="#BDDBF1" stop-opacity="0.278431"/>
			<stop offset="1.000000" stop-color="#5686F5" stop-opacity="0.000000"/>
		</radialGradient>
		<radialGradient gradientTransform="translate(113.279 164.913) rotate(50.1428) scale(20.4946 20.3718)" cx="0.000000" cy="0.000000" r="1.000000" id="paint_radial_2_3786_0" gradientUnits="userSpaceOnUse">
			<stop stop-color="#FFFFFF"/>
			<stop offset="0.601048" stop-color="#BDDBF1" stop-opacity="0.278431"/>
			<stop offset="1.000000" stop-color="#5686F5" stop-opacity="0.000000"/>
		</radialGradient>
	</defs>
	<path id="Ellipse 2" d="M167.88 109.4C167.88 115.72 162.75 120.85 156.43 120.85C150.1 120.85 144.98 115.72 144.98 109.4C144.98 104.03 148.44 100.39 153.56 95.24C155.14 93.65 157.73 93.64 159.31 95.23C164.38 100.32 167.88 104.04 167.88 109.4Z" fill="url(#paint_radial_2_3772_0)" fill-opacity="1.000000" fill-rule="nonzero"/>
	<g opacity="0.800000" filter="url(#filter_2_3773_dd)">
		<path id="Ellipse 6" d="M166.39 113.23C166.39 118.76 161.91 123.25 156.37 123.25C150.84 123.25 146.35 118.76 146.35 113.23C146.35 108.65 149.22 105.51 153.5 101.19C155.08 99.6 157.67 99.59 159.25 101.19C163.5 105.46 166.39 108.66 166.39 113.23Z" fill="url(#paint_radial_2_3773_0)" fill-opacity="1.000000" fill-rule="nonzero"/>
	</g>
	<g filter="url(#filter_2_3774_dd)" style="mix-blend-mode:color-burn">
		<path id="Subtract" d="M167.265 113.084C165.172 115.829 161.869 117.601 158.151 117.601C151.826 117.601 146.699 112.474 146.699 106.148C146.699 104.683 146.957 103.346 147.437 102.072C145.88 104.336 144.981 106.622 144.981 109.355C144.981 115.681 150.108 120.808 156.433 120.808C161.453 120.808 165.718 117.579 167.265 113.084Z" clip-rule="evenodd" fill="url(#paint_radial_2_3774_0)" fill-opacity="1.000000" fill-rule="evenodd"/>
	</g>
	<g opacity="0.300000" style="mix-blend-mode:screen">
		<circle id="Ellipse 4" cx="160.211365" cy="103.215332" r="10.879615" fill="url(#paint_radial_2_3777_0)" fill-opacity="1.000000"/>
	</g>
	<g opacity="0.700000" filter="url(#filter_2_3778_dd)" style="mix-blend-mode:screen">
		<circle id="Ellipse 5" cx="151.622864" cy="114.095215" r="10.879615" fill="url(#paint_radial_2_3778_0)" fill-opacity="1.000000"/>
	</g>
	<path id="Ellipse 2" d="M154.26 153.07C154.26 169.02 141.34 181.94 125.4 181.94C109.45 181.94 96.53 169.02 96.53 153.07C96.53 138.05 107.29 128.4 122.53 112.98C124.11 111.38 126.69 111.38 128.27 112.97C143.39 128.16 154.26 138.06 154.26 153.07Z" fill="url(#paint_radial_2_3780_0)" fill-opacity="1.000000" fill-rule="nonzero"/>
	<g opacity="0.800000" filter="url(#filter_2_3781_dd)">
		<path id="Ellipse 6" d="M150.51 162.73C150.51 176.69 139.2 188 125.25 188C111.3 188 100 176.69 100 162.73C100 149.7 109.24 141.28 122.39 127.99C123.97 126.39 126.55 126.39 128.13 127.98C141.17 141.08 150.51 149.71 150.51 162.73Z" fill="url(#paint_radial_2_3781_0)" fill-opacity="1.000000" fill-rule="nonzero"/>
	</g>
	<g filter="url(#filter_2_3782_dd)" style="mix-blend-mode:color-burn">
		<path id="Subtract" d="M102.727 134.602C98.8015 140.31 96.5355 146.072 96.5355 152.964C96.5355 168.907 109.46 181.831 125.403 181.831C138.054 181.831 148.804 173.693 152.704 162.366C147.43 169.284 139.103 173.749 129.732 173.749C113.789 173.749 100.865 160.824 100.865 144.881C100.865 141.185 101.517 137.814 102.727 134.602Z" clip-rule="evenodd" fill="url(#paint_radial_2_3782_0)" fill-opacity="1.000000" fill-rule="evenodd"/>
	</g>
	<g opacity="0.300000" style="mix-blend-mode:screen">
		<circle id="Ellipse 4" cx="134.929077" cy="137.488770" r="27.423742" fill="url(#paint_radial_2_3785_0)" fill-opacity="1.000000"/>
	</g>
	<g opacity="0.700000" filter="url(#filter_2_3786_dd)" style="mix-blend-mode:screen">
		<circle id="Ellipse 5" cx="113.278687" cy="164.912598" r="27.423742" fill="url(#paint_radial_2_3786_0)" fill-opacity="1.000000"/>
	</g>
</svg>
 -->

<svg xmlns="http://www.w3.org/2000/svg" xmlns:xlink="http://www.w3.org/300/xlink" width="133.396790" height="144" viewBox="70 70 133.397 144" fill="none">
	
	<defs>
		<filter id="filter_2_3773_dd" x="46.355408" y="0.000000" width="220.041382" height="223.256836" filterUnits="userSpaceOnUse" color-interpolation-filters="sRGB">
			<feFlood flood-opacity="0" result="BackgroundImageFix"/>
			<feBlend mode="normal" in="SourceGraphic" in2="BackgroundImageFix" result="shape"/>
			<feGaussianBlur stdDeviation="33.3333" result="effect_layerBlur_1"/>
		</filter>
		<filter id="filter_2_3774_dd" x="134.980896" y="92.071777" width="42.283752" height="38.735840" filterUnits="userSpaceOnUse" color-interpolation-filters="sRGB">
			<feFlood flood-opacity="0" result="BackgroundImageFix"/>
			<feBlend mode="normal" in="SourceGraphic" in2="BackgroundImageFix" result="shape"/>
			<feGaussianBlur stdDeviation="3.33333" result="effect_layerBlur_1"/>
		</filter>
		<filter id="filter_2_3778_dd" x="90.743225" y="53.215820" width="121.759216" height="121.759277" filterUnits="userSpaceOnUse" color-interpolation-filters="sRGB">
			<feFlood flood-opacity="0" result="BackgroundImageFix"/>
			<feBlend mode="normal" in="SourceGraphic" in2="BackgroundImageFix" result="shape"/>
			<feGaussianBlur stdDeviation="16.6667" result="effect_layerBlur_1"/>
		</filter>
		<filter id="filter_2_3781_dd" x="0.000000" y="26.793457" width="250.517395" height="261.212891" filterUnits="userSpaceOnUse" color-interpolation-filters="sRGB">
			<feFlood flood-opacity="0" result="BackgroundImageFix"/>
			<feBlend mode="normal" in="SourceGraphic" in2="BackgroundImageFix" result="shape"/>
			<feGaussianBlur stdDeviation="33.3333" result="effect_layerBlur_1"/>
		</filter>
		<filter id="filter_2_3782_dd" x="86.535461" y="124.601562" width="76.168518" height="67.229492" filterUnits="userSpaceOnUse" color-interpolation-filters="sRGB">
			<feFlood flood-opacity="0" result="BackgroundImageFix"/>
			<feBlend mode="normal" in="SourceGraphic" in2="BackgroundImageFix" result="shape"/>
			<feGaussianBlur stdDeviation="3.33333" result="effect_layerBlur_1"/>
		</filter>
		<filter id="filter_2_3786_dd" x="35.854919" y="87.488770" width="154.847473" height="154.847656" filterUnits="userSpaceOnUse" color-interpolation-filters="sRGB">
			<feFlood flood-opacity="0" result="BackgroundImageFix"/>
			<feBlend mode="normal" in="SourceGraphic" in2="BackgroundImageFix" result="shape"/>
			<feGaussianBlur stdDeviation="16.6667" result="effect_layerBlur_1"/>
		</filter>
		<radialGradient gradientTransform="translate(156.433 113.294) rotate(-46.0086) scale(23.0017 18.4753)" cx="0.000000" cy="0.000000" r="1.000000" id="paint_radial_2_3772_0" gradientUnits="userSpaceOnUse">
			<stop offset="0.109324" stop-color="#3CC7F5"/>
			<stop offset="1.000000" stop-color="#5686F5"/>
		</radialGradient>
		<radialGradient gradientTransform="translate(156.376 116.639) rotate(-46.025) scale(20.1325 16.1704)" cx="0.000000" cy="0.000000" r="1.000000" id="paint_radial_2_3773_0" gradientUnits="userSpaceOnUse">
			<stop offset="0.109324" stop-color="#3CC7F5"/>
			<stop offset="1.000000" stop-color="#5686F5"/>
		</radialGradient>
		<radialGradient gradientTransform="translate(156.433 113.25) rotate(-46.0063) scale(23.0012 18.4749)" cx="0.000000" cy="0.000000" r="1.000000" id="paint_radial_2_3774_0" gradientUnits="userSpaceOnUse">
			<stop offset="0.109324" stop-color="#3CC7F5"/>
			<stop offset="1.000000" stop-color="#5686F5"/>
		</radialGradient>
		<radialGradient gradientTransform="translate(160.211 103.216) rotate(51.5592) scale(11.6971 2.64788)" cx="0.000000" cy="0.000000" r="1.000000" id="paint_radial_2_3777_0" gradientUnits="userSpaceOnUse">
			<stop stop-color="#FFFFFF"/>
			<stop offset="0.601048" stop-color="#BDDBF1" stop-opacity="0.278431"/>
			<stop offset="1.000000" stop-color="#5686F5" stop-opacity="0.000000"/>
		</radialGradient>
		<radialGradient gradientTransform="translate(151.623 114.095) rotate(50.1427) scale(8.13068 8.08193)" cx="0.000000" cy="0.000000" r="1.000000" id="paint_radial_2_3778_0" gradientUnits="userSpaceOnUse">
			<stop stop-color="#FFFFFF"/>
			<stop offset="0.601048" stop-color="#BDDBF1" stop-opacity="0.278431"/>
			<stop offset="1.000000" stop-color="#5686F5" stop-opacity="0.000000"/>
		</radialGradient>
		<radialGradient gradientTransform="translate(125.402 162.892) rotate(-46.0086) scale(57.9794 46.5698)" cx="0.000000" cy="0.000000" r="1.000000" id="paint_radial_2_3780_0" gradientUnits="userSpaceOnUse">
			<stop offset="0.109324" stop-color="#3CC7F5"/>
			<stop offset="1.000000" stop-color="#5686F5"/>
		</radialGradient>
		<radialGradient gradientTransform="translate(125.259 171.326) rotate(-46.025) scale(50.747 40.7598)" cx="0.000000" cy="0.000000" r="1.000000" id="paint_radial_2_3781_0" gradientUnits="userSpaceOnUse">
			<stop offset="0.109324" stop-color="#3CC7F5"/>
			<stop offset="1.000000" stop-color="#5686F5"/>
		</radialGradient>
		<radialGradient gradientTransform="translate(125.403 162.779) rotate(-46.0083) scale(57.9791 46.5694)" cx="0.000000" cy="0.000000" r="1.000000" id="paint_radial_2_3782_0" gradientUnits="userSpaceOnUse">
			<stop offset="0.109324" stop-color="#3CC7F5"/>
			<stop offset="1.000000" stop-color="#5686F5"/>
		</radialGradient>
		<radialGradient gradientTransform="translate(134.929 137.489) rotate(51.5592) scale(29.4844 6.67442)" cx="0.000000" cy="0.000000" r="1.000000" id="paint_radial_2_3785_0" gradientUnits="userSpaceOnUse">
			<stop stop-color="#FFFFFF"/>
			<stop offset="0.601048" stop-color="#BDDBF1" stop-opacity="0.278431"/>
			<stop offset="1.000000" stop-color="#5686F5" stop-opacity="0.000000"/>
		</radialGradient>
		<radialGradient gradientTransform="translate(113.279 164.913) rotate(50.1428) scale(20.4946 20.3718)" cx="0.000000" cy="0.000000" r="1.000000" id="paint_radial_2_3786_0" gradientUnits="userSpaceOnUse">
			<stop stop-color="#FFFFFF"/>
			<stop offset="0.601048" stop-color="#BDDBF1" stop-opacity="0.278431"/>
			<stop offset="1.000000" stop-color="#5686F5" stop-opacity="0.000000"/>
		</radialGradient>
	</defs>
	<path id="Ellipse 2" d="M167.88 109.4C167.88 115.72 162.75 120.85 156.43 120.85C150.1 120.85 144.98 115.72 144.98 109.4C144.98 104.03 148.44 100.39 153.56 95.24C155.14 93.65 157.73 93.64 159.31 95.23C164.38 100.32 167.88 104.04 167.88 109.4Z" fill="url(#paint_radial_2_3772_0)" fill-opacity="1.000000" fill-rule="nonzero"/>
	<g opacity="0.800000" filter="url(#filter_2_3773_dd)">
		<path id="Ellipse 6" d="M166.39 113.23C166.39 118.76 161.91 123.25 156.37 123.25C150.84 123.25 146.35 118.76 146.35 113.23C146.35 108.65 149.22 105.51 153.5 101.19C155.08 99.6 157.67 99.59 159.25 101.19C163.5 105.46 166.39 108.66 166.39 113.23Z" fill="url(#paint_radial_2_3773_0)" fill-opacity="1.000000" fill-rule="nonzero"/>
	</g>
	<g filter="url(#filter_2_3774_dd)" style="mix-blend-mode:color-burn">
		<path id="Subtract" d="M167.265 113.084C165.172 115.829 161.869 117.601 158.151 117.601C151.826 117.601 146.699 112.474 146.699 106.148C146.699 104.683 146.957 103.346 147.437 102.072C145.88 104.336 144.981 106.622 144.981 109.355C144.981 115.681 150.108 120.808 156.433 120.808C161.453 120.808 165.718 117.579 167.265 113.084Z" clip-rule="evenodd" fill="url(#paint_radial_2_3774_0)" fill-opacity="1.000000" fill-rule="evenodd"/>
	</g>
	<g opacity="0.300000" style="mix-blend-mode:screen">
		<circle id="Ellipse 4" cx="160.211365" cy="103.215332" r="10.879615" fill="url(#paint_radial_2_3777_0)" fill-opacity="1.000000"/>
	</g>
	<g opacity="0.700000" filter="url(#filter_2_3778_dd)" style="mix-blend-mode:screen">
		<circle id="Ellipse 5" cx="151.622864" cy="114.095215" r="10.879615" fill="url(#paint_radial_2_3778_0)" fill-opacity="1.000000"/>
	</g>
	<path id="Ellipse 2" d="M154.26 153.07C154.26 169.02 141.34 181.94 125.4 181.94C109.45 181.94 96.53 169.02 96.53 153.07C96.53 138.05 107.29 128.4 122.53 112.98C124.11 111.38 126.69 111.38 128.27 112.97C143.39 128.16 154.26 138.06 154.26 153.07Z" fill="url(#paint_radial_2_3780_0)" fill-opacity="1.000000" fill-rule="nonzero"/>
	<g opacity="0.800000" filter="url(#filter_2_3781_dd)">
		<path id="Ellipse 6" d="M150.51 162.73C150.51 176.69 139.2 188 125.25 188C111.3 188 100 176.69 100 162.73C100 149.7 109.24 141.28 122.39 127.99C123.97 126.39 126.55 126.39 128.13 127.98C141.17 141.08 150.51 149.71 150.51 162.73Z" fill="url(#paint_radial_2_3781_0)" fill-opacity="1.000000" fill-rule="nonzero"/>
	</g>
	<g filter="url(#filter_2_3782_dd)" style="mix-blend-mode:color-burn">
		<path id="Subtract" d="M102.727 134.602C98.8015 140.31 96.5355 146.072 96.5355 152.964C96.5355 168.907 109.46 181.831 125.403 181.831C138.054 181.831 148.804 173.693 152.704 162.366C147.43 169.284 139.103 173.749 129.732 173.749C113.789 173.749 100.865 160.824 100.865 144.881C100.865 141.185 101.517 137.814 102.727 134.602Z" clip-rule="evenodd" fill="url(#paint_radial_2_3782_0)" fill-opacity="1.000000" fill-rule="evenodd"/>
	</g>
	<g opacity="0.300000" style="mix-blend-mode:screen">
		<circle id="Ellipse 4" cx="134.929077" cy="137.488770" r="27.423742" fill="url(#paint_radial_2_3785_0)" fill-opacity="1.000000"/>
	</g>
	<g opacity="0.700000" filter="url(#filter_2_3786_dd)" style="mix-blend-mode:screen">
		<circle id="Ellipse 5" cx="113.278687" cy="164.912598" r="27.423742" fill="url(#paint_radial_2_3786_0)" fill-opacity="1.000000"/>
	</g>
</svg>